<svg xmlns="http://www.w3.org/2000/svg" width="66" height="60" viewBox="0 0 66 60"><g><g><path fill="#fff" d="M64.582 17.57c.528 0 .955.428.955.956v9.434a.955.955 0 0 1-.955.954h-3.87v26.878a4.155 4.155 0 0 1-4.15 4.15h-36.8a.955.955 0 1 1 0-1.91h7.56V28.914H7.198v26.878a2.243 2.243 0 0 0 2.24 2.24h6.505a.955.955 0 0 1 0 1.91H9.438a4.155 4.155 0 0 1-4.15-4.15V28.915h-3.87a.956.956 0 0 1-.956-.955v-9.434c0-.528.428-.955.956-.955H9.15a7.149 7.149 0 0 1-1.576-1.883c-1.5-2.603-1.35-6.111.444-10.427C9.06 2.75 10.524 1.11 12.365.386c1.816-.715 3.954-.523 6.353.568a.955.955 0 0 1-.792 1.739c-1.91-.869-3.546-1.048-4.862-.53-1.34.528-2.445 1.817-3.283 3.831-1.55 3.728-1.738 6.664-.561 8.724 1.285 2.248 3.887 2.783 4.282 2.853h14.953v-5.887c-.786-.953-3.724-4.399-7.15-6.94a.955.955 0 0 1 1.137-1.534c3.544 2.629 6.5 6.062 7.422 7.18h6.271C37.785 8.387 45.8-.865 52.245.024c2.506.346 4.437 2.108 5.737 5.237 1.794 4.316 1.943 7.824.443 10.427a7.145 7.145 0 0 1-1.575 1.883zM42.527 6.513c-2.44 2.16-4.368 4.427-4.981 5.172v5.887h14.952c.397-.07 2.998-.606 4.282-2.853 1.177-2.06.988-4.996-.562-8.724-1.036-2.493-2.421-3.827-4.234-4.078-2.414-.334-5.684 1.256-9.457 4.596zM30.365 17.571h5.27V12.3h-5.27zm-3.042 9.434V19.48H2.373v7.524zm1.91 31.027h7.534V19.48h-7.535zM63.626 19.48h-24.95v7.524h10.966a.955.955 0 0 1 0 1.91H38.677v29.117h17.885a2.243 2.243 0 0 0 2.24-2.24V28.914h-5.339a.955.955 0 1 1 0-1.91h10.164z"/></g></g></svg>