<svg xmlns="http://www.w3.org/2000/svg" width="76" height="60" viewBox="0 0 76 60"><g><g><path fill="#fff" d="M33.789 59.995c-.23 0-.463-.02-.693-.056a4.302 4.302 0 0 1-2.822-1.737 4.292 4.292 0 0 1-.822-2.469l-.005-.406-.387.124a4.286 4.286 0 0 1-2.006.15 4.3 4.3 0 0 1-2.822-1.738 4.297 4.297 0 0 1-.819-2.473l-.005-.405-.386.122a4.332 4.332 0 0 1-1.311.202c-.661 0-1.323-.151-1.915-.438-.62-.3-1.144-.73-1.557-1.278a4.215 4.215 0 0 1-.85-2.541l-.001-.412-.392.127a4.347 4.347 0 0 1-4.848-1.579 4.308 4.308 0 0 1-.81-2.249 4.361 4.361 0 0 1 .475-2.28l.136-.264-2.896-1.545-.988 1.712a.81.81 0 0 1-1.096.293l-5.826-3.363a.803.803 0 0 1 .802-1.39l1.455.841L18.182 11.34 1.142 1.501A.798.798 0 0 1 .85.405.804.804 0 0 1 1.945.114l21.41 12.361c.377.218.511.72.294 1.096l-1.802 3.12 2.082 1.21 5.211-.611a.8.8 0 0 1 .404.057l2.161.91.813-3.252a.8.8 0 0 1 .778-.607h12.936c.084 0 .171.014.253.04l5.8 1.917 1.788-1.368-2.183-2.866a.802.802 0 0 1-.147-.625.802.802 0 0 1 .352-.536l10.998-7.06a.799.799 0 0 1 1.108.241c.239.373.13.87-.242 1.109l-10.267 6.59 17.863 23.453 2.403-1.905a.8.8 0 0 1 1.127.13.803.803 0 0 1-.13 1.127l-3.043 2.413a.81.81 0 0 1-1.137-.142l-1.197-1.573-2.383 1.692.119.231c.126.246.228.503.305.765a4.3 4.3 0 0 1-.352 3.295 4.3 4.3 0 0 1-2.578 2.082 4.281 4.281 0 0 1-2.009.106l-.4-.074.047.403a4.29 4.29 0 0 1-.502 2.553 4.335 4.335 0 0 1-4.59 2.185l-.4-.073.047.403a4.297 4.297 0 0 1-.499 2.555 4.334 4.334 0 0 1-4.588 2.185l-.399-.073.046.403a4.292 4.292 0 0 1-.5 2.554 4.303 4.303 0 0 1-2.58 2.082 4.34 4.34 0 0 1-1.229.178c-.715 0-1.43-.183-2.066-.53l-4.786-2.609-.145.26a4.293 4.293 0 0 1-1.244 1.395l-2.572 1.861a4.287 4.287 0 0 1-2.528.824zm2.558-8.914c-.578 0-1.128.177-1.591.513l-2.573 1.86a2.736 2.736 0 0 0-.61 3.807 2.74 2.74 0 0 0 2.22 1.12c.578 0 1.126-.176 1.586-.51l2.573-1.86a2.703 2.703 0 0 0 1.1-1.816 2.703 2.703 0 0 0-.536-2.053 2.746 2.746 0 0 0-2.17-1.06zM23.46 32.668c1.349 0 2.598.62 3.429 1.702a4.296 4.296 0 0 1 .8 3.54l-.074.345.353.017c1.265.061 2.44.68 3.22 1.696a4.297 4.297 0 0 1 .8 3.54l-.073.345.352.017c1.266.061 2.44.68 3.22 1.697a4.296 4.296 0 0 1 .8 3.54l-.073.344.353.017c1.265.062 2.44.68 3.22 1.697.602.784.911 1.717.895 2.7l-.003.181 5.154 2.81a2.7 2.7 0 0 0 1.287.326 2.736 2.736 0 0 0 2.411-1.415c.345-.632.42-1.368.213-2.073a2.704 2.704 0 0 0-1.302-1.625l-7.12-3.881a.804.804 0 0 1 .384-1.507c.133 0 .265.034.383.098l9.186 5.007c.392.213.837.326 1.287.326a2.736 2.736 0 0 0 2.412-1.415A2.73 2.73 0 0 0 53.888 47l-8.775-4.783a.803.803 0 0 1 .385-1.507.8.8 0 0 1 .382.099l10.839 5.907a2.727 2.727 0 0 0 2.61-4.787l-10.683-5.822a.803.803 0 0 1 .768-1.408l12.747 6.947c.391.214.836.326 1.286.326a2.737 2.737 0 0 0 2.412-1.415c.707-1.297.208-2.991-1.09-3.698L41.55 24.203l-.396.634v9.178a5.512 5.512 0 0 1-5.506 5.506 5.512 5.512 0 0 1-5.506-5.506v-9.408c0-.066.008-.13.024-.195l1.145-4.582-2.195-.923-5.265.616a.805.805 0 0 1-.496-.103l-2.31-1.341L9.855 37.46l3.216 1.715 7.846-5.676a4.316 4.316 0 0 1 2.544-.83zm6.849 13.434l-4.17 3.016a2.73 2.73 0 0 0-.609 3.805 2.708 2.708 0 0 0 2.214 1.129 2.7 2.7 0 0 0 1.593-.518l4.314-3.122a2.701 2.701 0 0 0 1.09-1.817 2.7 2.7 0 0 0-.526-2.052 2.717 2.717 0 0 0-3.76-.548l-.162.117zm-2.55-6.227c-.362 0-.73.074-1.062.215-.219.093-.4.217-.576.337l-.119.081-.005.003-5.834 4.221a2.859 2.859 0 0 0-1.133 1.885c-.11.731.064 1.445.49 2.011a2.743 2.743 0 0 0 2.183 1.081c.577 0 1.128-.177 1.592-.513l6.057-4.383a2.7 2.7 0 0 0 1.09-1.817 2.698 2.698 0 0 0-.526-2.051 2.725 2.725 0 0 0-2.158-1.07zm-4.302-5.599c-.575 0-1.128.18-1.6.522l-7.8 5.643a2.729 2.729 0 0 0-.61 3.807 2.736 2.736 0 0 0 2.211 1.127c.576 0 1.128-.179 1.595-.517l7.8-5.643a2.7 2.7 0 0 0 1.09-1.817 2.7 2.7 0 0 0-.527-2.052 2.705 2.705 0 0 0-2.159-1.07zM4.79 37.745l2.286 1.32L21.86 13.462l-2.287-1.32zm26.956-13.04v9.31a3.906 3.906 0 0 0 3.902 3.902 3.906 3.906 0 0 0 3.902-3.902v-9.408c0-.15.042-.298.122-.426l2.387-3.818a.798.798 0 0 1 1.105-.255c.182.114.308.29.356.5a.798.798 0 0 1-.1.605l-1.018 1.627 23.136 12.61c.137.075.271.159.411.256l.174.121 2.482-1.762-13.56-17.803-2.121 1.623a.808.808 0 0 1-.74.125L46.105 16H33.921z"/></g></g></svg>