<svg xmlns="http://www.w3.org/2000/svg" width="68" height="60" viewBox="0 0 68 60"><g><g><path fill="#fff" d="M29.25 24.78a3.589 3.589 0 0 1 0 5.07L17.208 41.894c-.51.51-1.188.79-1.908.79h-.001c-.721 0-1.4-.281-1.908-.79l-6.69-6.69a2.68 2.68 0 0 1-.79-1.91c0-.721.28-1.398.79-1.907l20.092-20.092a2.937 2.937 0 0 1 4.148 0l6.359 6.36a.976.976 0 1 1-1.382 1.382l-6.36-6.36a.977.977 0 0 0-1.383 0L8.084 32.77a.738.738 0 0 0-.218.526.74.74 0 0 0 .218.527l6.69 6.689a.744.744 0 0 0 1.052 0l5.63-5.632-5.668-5.668a.977.977 0 1 1 1.382-1.383l5.669 5.67 5.03-5.03a1.633 1.633 0 0 0 0-2.305l-4.611-4.61a.978.978 0 0 1 1.383-1.382zm38.115 6.542a16.56 16.56 0 0 1-5.168 12.32l-4.781 4.781a8.742 8.742 0 0 1-6.222 2.578c-2.35 0-4.56-.916-6.221-2.578l-2-2-12.611 12.612a3.56 3.56 0 0 1-2.535 1.05H25.33a2.937 2.937 0 0 1-2.932-2.932v-2.495c0-.958.373-1.858 1.05-2.535l.984-.985c.37-.368.86-.573 1.382-.573h1.225v-1.223c0-.523.204-1.014.573-1.383l.777-.778c.37-.368.86-.572 1.382-.572h1.225v-1.224c0-.523.204-1.014.573-1.383l4.49-4.49-2.008-2.01a8.778 8.778 0 0 1-1.973-3.013L20.94 45.626a7.923 7.923 0 0 1-5.641 2.337c-2.131 0-4.135-.83-5.642-2.337l-6.69-6.689a7.927 7.927 0 0 1-2.336-5.642c0-2.131.83-4.134 2.337-5.642L24.443 6.18a7.445 7.445 0 0 1 5.293-2.196c2.993-.002 6.268-.01 7.98-.006.79.002 1.567.147 2.303.423 2.52-2.68 6.085-4.3 9.9-4.3 7.485 0 13.574 6.09 13.574 13.575 0 2.122-.49 4.13-1.362 5.921.11.102.216.204.322.31 3.087 3.053 4.832 7.108 4.912 11.415zM49.92 2.057a11.648 11.648 0 0 0-8.128 3.327c.263.2.517.42.758.66 1.33 1.332 2.063 3.049 2.067 4.834.002 1.095 0 2.722-.003 4.567v.88c5.071-2.06 11.167-1.542 15.962 1.978.618-1.419.962-2.983.962-4.627 0-6.407-5.212-11.62-11.618-11.62zM31.532 32.27a8.755 8.755 0 0 1 2.522-7.212l5.097-5.094a16.65 16.65 0 0 1 3.506-2.687l.002-1.835c.003-1.842.006-3.466.003-4.559-.003-1.267-.534-2.494-1.495-3.457a5.493 5.493 0 0 0-.66-.56c-.382.527-.722 1.09-1.015 1.683a2.93 2.93 0 0 1-1.777 5.264 2.936 2.936 0 0 1-2.933-2.933 2.935 2.935 0 0 1 2.829-2.93 13.5 13.5 0 0 1 1.087-1.906 4.614 4.614 0 0 0-.986-.111c-1.64-.004-5.001.005-7.974.006a5.506 5.506 0 0 0-3.913 1.623L4.35 29.036a6.03 6.03 0 0 0 0 8.519l6.69 6.689a5.987 5.987 0 0 0 4.259 1.764c1.609 0 3.121-.627 4.258-1.764zm7.16-21.39a.973.973 0 0 0-.235-.634.97.97 0 0 1-1.112-.27.979.979 0 0 0 .37 1.882c.54 0 .977-.438.977-.978zm2.899 34.161l-4.147-4.147-4.492 4.49v2.203c0 .54-.437.977-.977.977h-2.202l-.777.778v2.201c0 .54-.438.978-.978.978h-2.202l-.985.984a1.619 1.619 0 0 0-.477 1.153v2.153l12.43-12.43a.978.978 0 1 1 1.383 1.384L25.802 58.13h2.025c.435 0 .844-.17 1.152-.477zm19.253-2.811a14.606 14.606 0 0 0 4.567-10.872c-.073-3.885-1.712-7.423-4.303-10.007a13.682 13.682 0 0 1-3.99 3.827c1.656 1.608 2.708 3.833 2.754 6.284.008.434-.014.869-.066 1.294a3.406 3.406 0 0 1-2.293 2.824 3.449 3.449 0 0 1-3.596-.826l-.06-.059c-.806-.806-1.25-1.898-1.219-2.999a2.083 2.083 0 0 0 .001-.1c-.017-.922-.844-1.74-1.77-1.75h-.052a4.386 4.386 0 0 1-3.086-1.276 3.443 3.443 0 0 1-.824-3.59 3.444 3.444 0 0 1 2.872-2.307 9.25 9.25 0 0 1 1.068-.062h.072a8.933 8.933 0 0 1 4.529 1.281 11.7 11.7 0 0 0 4.176-3.836 14.497 14.497 0 0 0-19.09 1.29l-5.098 5.095a6.801 6.801 0 0 0-2.005 4.84c0 1.827.711 3.547 2.004 4.839l10.92 10.92a6.799 6.799 0 0 0 4.84 2.005 6.8 6.8 0 0 0 4.838-2.005l4.791-4.79.02-.02zm-9.96-14.34c1.978.023 3.673 1.704 3.71 3.67l-.001.19c-.016.567.22 1.136.647 1.563l.059.06c.42.42 1.01.554 1.577.36.55-.19.92-.644.989-1.214.04-.334.058-.678.051-1.02-.04-2.15-1.067-4.078-2.64-5.353a13.482 13.482 0 0 1-6.12 1.08 2.42 2.42 0 0 0 1.657.664zm-1.943-2.637a11.594 11.594 0 0 0 4.011-.36 6.92 6.92 0 0 0-2.045-.326h-.064c-.277 0-.56.016-.836.048a1.477 1.477 0 0 0-1.066.638z"/></g></g></svg>