<svg xmlns="http://www.w3.org/2000/svg" width="60" height="60" viewBox="0 0 60 60"><g><g><path fill="#fff" d="M5.731 10.451a.676.676 0 0 1 0-1.35h6.067a.676.676 0 0 1 0 1.35zm11.123 0a.676.676 0 0 1 0-1.35h9.101a.676.676 0 0 1 0 1.35zM5.731 21.574a.676.676 0 0 1 0-1.35h32.358a.676.676 0 0 1 0 1.35zm0 4.045a.676.676 0 0 1 0-1.35h14.157a.676.676 0 0 1 0 1.35zm0 8.09a.675.675 0 0 1 0-1.35h14.157a.676.676 0 0 1 0 1.35zm0 8.089a.676.676 0 0 1 0-1.35h14.157a.676.676 0 0 1 0 1.35zm0 8.09a.676.676 0 0 1 0-1.35h14.157a.676.676 0 0 1 0 1.35zM45.168 60c-.307 0-.602-.094-.852-.272l-1.065-.756-.2.207a2.704 2.704 0 0 1-1.929.82H2.698A2.7 2.7 0 0 1 0 57.303V6.742a2.7 2.7 0 0 1 2.698-2.698h1.347V2.697A2.7 2.7 0 0 1 6.742 0h38.426a2.7 2.7 0 0 1 2.698 2.697v21.666l11.73 5.065c.245.107.404.35.404.62V44.67a9.982 9.982 0 0 1-4.197 8.093l-9.783 6.965c-.25.177-.545.27-.852.27zM33.722 29.616l-2.036.88v14.175a8.627 8.627 0 0 0 3.63 6.992l9.852 7.014 9.852-7.014a8.625 8.625 0 0 0 3.63-6.99V30.491l-13.482-5.824zM2.698 5.396c-.743 0-1.348.603-1.348 1.346v50.56c0 .743.605 1.347 1.348 1.347h38.425c.222-.006.432-.063.617-.166l.465-.258-6.03-4.292H5.73a.676.676 0 0 1 0-1.35h28.49l-.634-.584a10.017 10.017 0 0 1-1.645-1.957l-.1-.154h-7.91a.676.676 0 0 1 0-1.35h7.186l-.165-.452a9.856 9.856 0 0 1-.494-1.955l-.042-.288H5.73a.676.676 0 0 1 0-1.35h24.605v-2.695h-6.403a.676.676 0 0 1 0-1.35h6.403v-2.694H5.73a.676.676 0 0 1 0-1.351h24.605v-2.695h-6.403a.676.676 0 0 1 0-1.35h6.403v-2.283a.41.41 0 0 0 .007-.075v-.336H5.73a.676.676 0 0 1 0-1.35h27.593l4.746-2.05-.133-.645H23.933a.676.676 0 0 1 0-1.35h14.156c.373 0 .676.302.676.674a.65.65 0 0 1-.146.395l.394.52 3.457-1.496V17.53h-9.436a2.7 2.7 0 0 1-2.698-2.699V5.395zm42.474 17.861a.67.67 0 0 1 .267.055l1.076.469V2.697c0-.743-.604-1.347-1.347-1.347H6.742c-.743 0-1.347.604-1.347 1.347v1.347h25.59a.432.432 0 0 0 .085.009h.002a.667.667 0 0 1 .152.032c.017.005.034.01.05.013l.021.01c.075.034.142.08.2.137l12.132 12.132a.66.66 0 0 1 .145.22.45.45 0 0 0 .01.044c.02.059.031.113.035.168.002.033.007.06.012.078v6.894l1.077-.469a.662.662 0 0 1 .266-.055zm-13.486-8.426c0 .743.605 1.348 1.348 1.348h8.481l-9.829-9.83zm13.482 40.385a.67.67 0 0 1-.392-.125l-7.9-5.623a5.924 5.924 0 0 1-2.495-4.798V32.706c0-.269.158-.512.405-.62l10.11-4.368a.67.67 0 0 1 .542 0l10.113 4.37c.245.106.405.35.404.619V44.67a5.926 5.926 0 0 1-2.495 4.797l-7.9 5.623a.67.67 0 0 1-.392.125zM35.73 33.15v11.521a4.566 4.566 0 0 0 1.932 3.697l7.505 5.344 7.506-5.338a4.57 4.57 0 0 0 1.93-3.701V33.155l-9.436-4.08zm7.414 13.704a.67.67 0 0 1-.405-.135l-4.044-3.033a.677.677 0 0 1 .81-1.08l3.522 2.64 7.68-9.601a.674.674 0 0 1 .95-.106c.29.233.337.66.104.95l-8.089 10.112a.672.672 0 0 1-.528.253z"/></g></g></svg>