<svg xmlns="http://www.w3.org/2000/svg" width="31" height="31" viewBox="0 0 31 31"><g><g><path fill="#696e77" d="M30.28 22.388a8.157 8.157 0 0 1-8.158 8.158 8.129 8.129 0 0 1-3.857-.967c-.835.154-1.695.236-2.576.236-7.77 0-14.067-6.298-14.067-14.07 0-.968.097-1.914.284-2.828A8.159 8.159 0 0 1 13.284 1.884a14.233 14.233 0 0 1 2.405-.205c7.77 0 14.068 6.299 14.068 14.067 0 1.036-.112 2.044-.325 3.02a8.12 8.12 0 0 1 .848 3.622zm-6.391-3.058c0-.968-.192-1.802-.572-2.477a4.785 4.785 0 0 0-1.586-1.675c-.66-.43-1.47-.798-2.407-1.098a32.953 32.953 0 0 0-3.11-.815c-.9-.209-1.556-.368-1.946-.478a6.162 6.162 0 0 1-1.132-.438c-.357-.18-.64-.392-.839-.638a1.233 1.233 0 0 1-.281-.818c0-.524.285-.964.872-1.349.609-.4 1.43-.601 2.438-.601 1.085 0 1.875.18 2.349.541.487.371.911.897 1.262 1.562.303.522.576.885.84 1.12.283.248.69.375 1.211.375.573 0 1.06-.202 1.445-.603.383-.398.577-.855.577-1.358 0-.522-.149-1.063-.44-1.604-.289-.538-.749-1.054-1.368-1.538-.614-.48-1.395-.87-2.323-1.158-.922-.286-2.027-.432-3.283-.432-1.572 0-2.96.22-4.128.651-1.183.436-2.101 1.075-2.73 1.896a4.568 4.568 0 0 0-.956 2.846c0 1.116.307 2.063.91 2.82.595.743 1.408 1.339 2.418 1.769.986.418 2.226.79 3.686 1.102 1.074.225 1.942.441 2.581.64.613.193 1.118.47 1.502.828.365.343.542.78.542 1.334 0 .703-.34 1.278-1.04 1.755-.717.49-1.671.739-2.834.739-.846 0-1.534-.123-2.043-.364-.507-.24-.904-.547-1.18-.913-.288-.379-.558-.86-.808-1.432-.224-.525-.501-.931-.825-1.207-.338-.285-.756-.43-1.24-.43-.588 0-1.083.184-1.468.548a1.763 1.763 0 0 0-.586 1.326c0 .826.303 1.681.9 2.542a6.576 6.576 0 0 0 2.316 2.056c1.323.701 3.017 1.057 5.037 1.057 1.684 0 3.163-.26 4.396-.773 1.246-.518 2.208-1.248 2.859-2.169.652-.923.984-1.98.984-3.139z"/></g></g></svg>