<svg xmlns="http://www.w3.org/2000/svg" width="31" height="31" viewBox="0 0 31 31"><g><g><path fill="#696e77" d="M30.988 15.1c0 8.333-6.809 15.09-15.21 15.09-2.666 0-5.17-.682-7.35-1.877l-8.42 2.675 2.745-8.098A14.943 14.943 0 0 1 .573 15.1C.572 6.765 7.38.009 15.78.009c8.399.001 15.207 6.757 15.207 15.09zM15.778 2.415c-7.05 0-12.785 5.691-12.785 12.688 0 2.776.905 5.347 2.436 7.436l-1.597 4.71 4.912-1.56a12.788 12.788 0 0 0 7.034 2.098c7.05 0 12.788-5.692 12.788-12.687 0-6.994-5.737-12.685-12.788-12.685zm7.464 17.925c-.311.862-1.832 1.694-2.516 1.755-.683.064-.683.558-4.474-.922-3.79-1.48-6.182-5.339-6.37-5.585-.186-.246-1.52-2.003-1.52-3.825 0-1.82.962-2.715 1.303-3.085.342-.37.746-.463.994-.463.249 0 .498.03.715.03.218 0 .528-.122.838.618.312.74 1.057 2.558 1.15 2.744.092.187.153.402.031.65-.124.248-.186.4-.373.615-.187.217-.392.483-.56.65-.184.184-.381.383-.162.753.216.371.965 1.58 2.073 2.563 1.424 1.258 2.627 1.648 3 1.835.373.183.59.152.807-.095.218-.247.933-1.08 1.18-1.45.248-.372.497-.308.84-.184.34.12 2.175 1.014 2.547 1.2.371.187.62.28.715.432.093.153.093.897-.218 1.764z"/></g></g></svg>