<svg xmlns="http://www.w3.org/2000/svg" width="63" height="50" viewBox="0 0 63 50"><defs><clipPath id="vxa8a"><path fill="#fff" d="M0 50V0h63v50zm26.396-20.666c-.91-.957-2.107-1.703-3.59-2.237-1.482-.535-3.388-.807-5.738-.807H13.88c.382-3.921 1.78-7.258 4.194-10.02 2.414-2.752 5.76-5.172 10.037-7.248L25.517 5c-5.633 2.398-10.45 5.906-14.453 10.544-4.002 4.637-5.993 9.234-5.993 13.79 0 4.9 1.154 8.74 3.484 11.513C10.884 43.619 14.219 45 18.56 45c2.753 0 5.146-.917 7.179-2.752 2.033-1.835 3.05-3.982 3.05-6.431 0-1.18-.18-2.33-.54-3.438-.36-1.109-.986-2.127-1.854-3.045zm29.14 0c-.91-.957-2.107-1.703-3.59-2.237-1.482-.535-3.388-.807-5.738-.807H43.02c.38-3.921 1.778-7.258 4.193-10.02 2.414-2.752 5.76-5.172 10.037-7.248L54.657 5c-5.633 2.398-10.45 5.906-14.453 10.544-4.003 4.637-5.993 9.234-5.993 13.79 0 4.9 1.154 8.74 3.483 11.513C40.024 43.619 43.36 45 47.7 45c2.754 0 5.146-.917 7.18-2.752 2.032-1.835 3.05-3.982 3.05-6.431 0-1.18-.181-2.33-.541-3.438-.36-1.109-.985-2.127-1.853-3.045z"/></clipPath></defs><g><g><path fill="#1e242f" d="M26.396 29.334c-.91-.957-2.107-1.703-3.59-2.237-1.482-.535-3.388-.807-5.738-.807H13.88c.382-3.921 1.78-7.258 4.194-10.02 2.414-2.752 5.76-5.172 10.037-7.248L25.517 5c-5.633 2.398-10.45 5.906-14.453 10.544-4.002 4.637-5.993 9.234-5.993 13.79 0 4.9 1.154 8.74 3.484 11.513C10.884 43.619 14.219 45 18.56 45c2.753 0 5.146-.917 7.179-2.752 2.033-1.835 3.05-3.982 3.05-6.431 0-1.18-.18-2.33-.54-3.438-.36-1.109-.986-2.127-1.854-3.045zm29.14 0c-.91-.957-2.107-1.703-3.59-2.237-1.482-.535-3.388-.807-5.738-.807H43.02c.38-3.921 1.778-7.258 4.193-10.02 2.414-2.752 5.76-5.172 10.037-7.248L54.657 5c-5.633 2.398-10.45 5.906-14.453 10.544-4.003 4.637-5.993 9.234-5.993 13.79 0 4.9 1.154 8.74 3.483 11.513C40.024 43.619 43.36 45 47.7 45c2.754 0 5.146-.917 7.18-2.752 2.032-1.835 3.05-3.982 3.05-6.431 0-1.18-.181-2.33-.541-3.438-.36-1.109-.985-2.127-1.853-3.045z"/><path fill="none" stroke="#fff" stroke-linecap="round" stroke-linejoin="round" stroke-miterlimit="50" stroke-width="10" d="M26.396 29.334c-.91-.957-2.107-1.703-3.59-2.237-1.482-.535-3.388-.807-5.738-.807H13.88c.382-3.921 1.78-7.258 4.194-10.02 2.414-2.752 5.76-5.172 10.037-7.248L25.517 5c-5.633 2.398-10.45 5.906-14.453 10.544-4.002 4.637-5.993 9.234-5.993 13.79 0 4.9 1.154 8.74 3.484 11.513C10.884 43.619 14.219 45 18.56 45c2.753 0 5.146-.917 7.179-2.752 2.033-1.835 3.05-3.982 3.05-6.431 0-1.18-.18-2.33-.54-3.438-.36-1.109-.986-2.127-1.854-3.045zm29.14 0c-.91-.957-2.107-1.703-3.59-2.237-1.482-.535-3.388-.807-5.738-.807H43.02c.38-3.921 1.778-7.258 4.193-10.02 2.414-2.752 5.76-5.172 10.037-7.248L54.657 5c-5.633 2.398-10.45 5.906-14.453 10.544-4.003 4.637-5.993 9.234-5.993 13.79 0 4.9 1.154 8.74 3.483 11.513C40.024 43.619 43.36 45 47.7 45c2.754 0 5.146-.917 7.18-2.752 2.032-1.835 3.05-3.982 3.05-6.431 0-1.18-.181-2.33-.541-3.438-.36-1.109-.985-2.127-1.853-3.045z" clip-path="url(&quot;#vxa8a&quot;)"/></g></g></svg>