<svg xmlns="http://www.w3.org/2000/svg" width="51" height="75" viewBox="0 0 51 75"><g><g><path fill="#df8607" d="M31.787 17.35c-12.91-1.57-18.575 2.329-18.575 2.329-.823-2.216-4.445-5.989-4.445-5.989C1.274 6.84 5.206 3.542 5.206 3.542 9.02.18 16.173.002 16.173.002l4.472 8.463-1.453-7.58c5.682-.061 9.297 1.22 9.297 1.22l.863 8.62L30.724.927c5.068.804 4.746 4.502 4.746 4.502.54 3.453-3.683 11.92-3.683 11.92zm16.425 47.712s-7.59 14.211-29.85 8.64c0 0-7.376-1.458-9.655-10.242 0 0-1.555 6.768 2.411 9.286 0 0-9.087-.829-10.173-11.219 0 0-3.49-29.963 13.632-38.362 0 0 6.437-3.214 19.831-1.533 0 0 9.041 2.903 13.172 16.635 0 0-.565 8.708-4.9 12.59 0 0 5.958-2.285 6.382-7.383 0 0 3.395 12.659-.85 21.588zM35.974 43.597c0-3.994-3.222-7.243-7.182-7.243h-7.23a.678.678 0 0 0-.675.681v9.526h-1.494a.678.678 0 0 0-.675.68v2.917c0 .376.303.681.675.681h1.494v1.555h-1.494a.678.678 0 0 0-.675.68v2.917c0 .375.303.68.675.68h1.494v2.236c0 .376.302.68.675.68h2.892a.678.678 0 0 0 .675-.68v-2.235h4.386a.678.678 0 0 0 .675-.681v-2.916a.678.678 0 0 0-.675-.681h-4.386v-1.555h3.663c3.973 0 7.182-3.243 7.182-7.242zm-4.242 0c0 1.634-1.319 2.964-2.94 2.964H25.13v-5.929h3.663c1.621 0 2.94 1.33 2.94 2.965z"/></g></g></svg>