<svg xmlns="http://www.w3.org/2000/svg" width="93" height="61" viewBox="0 0 93 61"><g><g><g><path fill="#1e242f" d="M24.067 40.785l.287.047c.63.103 1.372-.283 1.65-.857l1.792-3.721c.065-.135.126-.231.183-.297l.311.208c.007.06.01.127.01.204v1.904c0 .638-.034 1.68-.075 2.318l-.244 3.763zm-4.408-4.018l-.647-.59c-.472-.43-1.287-.484-1.812-.121L2.89 45.955a1.286 1.286 0 0 1-1.69-.236l-.093-.112a1.17 1.17 0 0 1 .156-1.637l16.408-13.595c.491-.408 1.327-.45 1.857-.094l1.663 1.117zm18.68 14.267l-.857.487c-.347.198-.806.235-1.216.13l.844-3.604c.146-.62.384-.62.53 0zm8.546-4.864l-.361-5.58a44 44 0 0 1-.075-2.317V34.36l4.044-2.928c.267-.04.519-.122.72-.247l11.975-7.389c.543-.335.71-1.05.37-1.59l-.099-.157 6.604-4.78-1.537-2.532.244-.146c1.197-.727 2.115-1.54 2.75-2.43l13.203 3.232c.62.15 1.003.782.851 1.402L82.01 31.364l-2.359 1.71-2.504-4.128zm-4.4-33.653a5.41 5.41 0 0 1-5.41 5.41 5.409 5.409 0 1 1 0-10.82 5.41 5.41 0 0 1 5.41 5.41zm16.957 10.41l-8.345 5.15c-.543.336-1.45.37-2.017.075l-4.308-2.232c-.566-.294-1.03-.012-1.03.626v11.823c0 .638.033 1.682.074 2.319l1.17 18.282c.04.637-.338 1.224-.841 1.304-.503.082-1.038-.36-1.188-.98l-4.505-18.637c-.15-.62-.453-1.128-.675-1.128h-.805c-.222 0-.525.508-.675 1.128l-4.505 18.636c-.15.62-.684 1.063-1.187.981-.504-.08-.882-.667-.841-1.304l1.17-18.282c.04-.637.073-1.68.073-2.319V28.196c0-.639-.369-.791-.82-.34l-1.781 1.781c-.452.451-1.047 1.291-1.324 1.866l-2.64 5.474c-.276.575-.895.98-1.374.903-.479-.079-.728-.645-.553-1.258l2.14-7.498c.175-.612.584-1.564.91-2.113l2.975-5.02c.325-.549.988-1.337 1.473-1.751l.112-.096c.485-.414 1.402-.705 2.038-.647l2.024.186c.093.287.43 1.098 1.38 1.734.084-.405.278-.72.492-.96l.653.74-.775 7.63 1.387 1.596 1.386-1.596-.774-7.63.653-.74c.214.24.407.555.491.96.94-.63 1.28-1.43 1.377-1.724l2.13-.196c.635-.058 1.552.233 2.037.647l4.237 3.618c.485.414 1.38.592 1.987.396l7.819-2.529c.607-.195 1.252-.121 1.433.167.18.287-.115.797-.658 1.132z"/></g><g><path fill="#df8607" d="M90.616 59.254a2.15 2.15 0 0 1-1.302.924 2.14 2.14 0 0 1-1.682-.286l-5.758-3.735c-.678-.436-.995-1.195-.95-1.948l-.988-.64a9.815 9.815 0 0 1-5.17 3.194c-5.295 1.285-10.645-1.977-11.93-7.271-1.283-5.294 1.978-10.642 7.27-11.93 5.293-1.281 10.645 1.977 11.927 7.272.601 2.471.199 4.95-.926 7.027l.947.615c.168-.09.346-.158.53-.203.545-.13 1.13-.06 1.637.265l5.759 3.736a2.151 2.151 0 0 1 .636 2.98zM80.26 45.265c-1.051-4.32-5.404-6.974-9.724-5.922-4.321 1.045-6.97 5.4-5.92 9.718a8.046 8.046 0 0 0 9.72 5.923c4.314-1.049 6.97-5.4 5.924-9.719zm2.6-1.624a10.931 10.931 0 0 0-1.664-3.14c.093-.19.234-.355.427-.49.801-.555 1.793-.07 2.434.852.693.999.763 2.057-.022 2.603a1.317 1.317 0 0 1-1.175.175zm-3.574 4.366c-.347 2.768-2.353 5.173-5.22 5.869-.169.04-.34.063-.51.091l-6.217-8.573a.808.808 0 0 1 .18-1.129l5.499-3.988a6.88 6.88 0 0 1 3.988 1.7l-2.264 1.573 3.568 5.136zm-2.812-.295c-.503-.724-1.258-.9-2.397-.605-.838.209-1.228.266-1.455-.062-.186-.267-.1-.665.402-1.014.503-.35.97-.46 1.244-.503l-.392-1.117c-.4.074-.911.249-1.49.652-1.212.841-1.478 2.02-.869 2.896.52.746 1.403.833 2.462.538.771-.209 1.142-.195 1.365.125.233.335.105.752-.43 1.123a3.618 3.618 0 0 1-1.51.574l.432 1.125c.4-.042 1.085-.292 1.672-.699 1.409-.98 1.564-2.172.966-3.033zm1.494-2.009l1.028-.714c.059.178.111.359.156.544.084.349.132.696.161 1.043l-.499.347zm-.153-2.876c.27.336.512.697.718 1.084l-1.222.849-.741-1.068zm14.662-.497l-9.192 6.666a10.91 10.91 0 0 0-.07-4.04c.466-.048.94-.207 1.399-.526 1.502-1.043 1.813-2.773.643-4.457-.984-1.417-2.666-2-4.243-.904a3.23 3.23 0 0 0-.585.53 10.996 10.996 0 0 0-3.217-2.364l7.585-5.5a.808.808 0 0 1 .804-.084l6.047 2.7a.809.809 0 0 1 .474.654l.685 6.586a.81.81 0 0 1-.33.739zM88.82 36.9a1.346 1.346 0 1 0-2.182 1.581 1.346 1.346 0 1 0 2.182-1.58zM59.482 15.556l.601 2.13-1.665 1.012-2.142-8.421 2.107-1.28 6.516 5.765-1.728 1.05-1.655-1.49zm1.072-2.295l-1.358-1.238c-.382-.345-.828-.795-1.19-1.153l-.02.013c.15.486.37 1.087.504 1.568l.494 1.763zm1.038-6.083c.532-.453 1.27-.973 2.081-1.466 1.35-.82 2.371-1.108 3.37-1.007 1.07.1 2.065.693 2.827 1.946.825 1.36.9 2.599.566 3.595-.37 1.076-1.33 2.062-2.72 2.906-.833.506-1.455.812-1.887 1.002zm5.132 4.817c.156-.052.378-.186.578-.308 1.46-.873 1.923-2.25.892-3.946-.885-1.482-2.223-1.737-3.603-.899-.359.218-.571.39-.69.505zm5.507-3.95c.566-.041 1.365-.223 2.05-.64.737-.447.942-.99.66-1.453-.269-.443-.76-.49-1.799-.278-1.43.306-2.596.12-3.223-.913-.736-1.212-.288-2.754 1.388-3.772.801-.486 1.494-.675 2.03-.742l.43 1.514a3.946 3.946 0 0 0-1.691.565c-.696.423-.841.943-.617 1.312.275.453.797.41 1.925.201 1.536-.297 2.523-.003 3.13.999.724 1.19.421 2.759-1.528 3.943-.812.493-1.74.768-2.275.79z"/></g></g></g></svg>