<svg xmlns="http://www.w3.org/2000/svg" width="70" height="60" viewBox="0 0 70 60"><g><g><g><path fill="#1e242f" d="M53.746 24.174c1.598.536 3.135 1.046 4.663 1.577.111.039.253.248.237.356-.126.877-.24 1.758-.45 2.616-.231.953-.555 1.883-.846 2.822-.545 1.756-1.43 3.348-2.414 4.886-.378.59-.84 1.127-1.267 1.686-.13.17-.206.313-.01.51a1462.65 1462.65 0 0 1 11.559 11.637c.662.675 1.358 1.338 1.897 2.107.9 1.281.957 2.707.128 4.033-.427.683-1.089 1.228-1.689 1.788-.5.467-1.036.911-1.61 1.283-.763.493-1.598.647-2.53.46-.798-.162-1.507-.434-2.066-1.012-.354-.367-.63-.807-.952-1.206-.889-1.105-1.794-2.197-2.673-3.31-.859-1.086-1.688-2.194-2.54-3.285-1.012-1.294-2.039-2.577-3.05-3.871-.861-1.103-1.708-2.217-2.566-3.321-.102-.132-.194-.229-.417-.094-1.26.76-2.574 1.415-3.989 1.845-.964.294-1.918.638-2.899.86-.95.217-1.926.376-2.898.44-1.389.089-2.786.11-4.178.076-.735-.019-1.468-.206-2.197-.343a24.628 24.628 0 0 1-1.823-.41c-1.522-.408-3.004-.938-4.41-1.654a24.62 24.62 0 0 1-3.98-2.503 23.78 23.78 0 0 1-3.435-3.255c-1.258-1.46-2.371-3.03-3.162-4.8-.473-1.059-.977-2.111-1.333-3.21-.355-1.095-.548-2.244-.803-3.371a16.298 16.298 0 0 1-.368-4.218c.047-1.211.205-2.421.373-3.623.12-.859.262-1.729.53-2.55.42-1.28.882-2.555 1.454-3.772 1.322-2.817 3.174-5.25 5.498-7.332 1.248-1.118 2.576-2.124 4.037-2.927 1.07-.59 2.205-1.07 3.34-1.529.88-.356 1.79-.675 2.716-.883 1.127-.252 2.28-.407 3.43-.535.95-.106 1.913-.183 2.865-.144 1.079.046 2.159.193 3.225.375 1.109.19 2.212.439 3.298.734.707.192 1.395.477 2.062.783.88.406 1.746.847 2.592 1.319a19.725 19.725 0 0 1 4.767 3.684c.891.943 1.72 1.949 2.538 2.958.339.42.58.918.859 1.385.322.54.675 1.065.944 1.63.41.857.76 1.742 1.13 2.617.1.232.186.47.278.705l-.086.075c-.311-.1-.625-.194-.934-.3-1.076-.368-2.148-.746-3.225-1.107-.55-.185-1.12-.315-1.66-.522a1.27 1.27 0 0 1-.592-.476 19.225 19.225 0 0 0-3.977-4.597c-1.208-1.019-2.516-1.898-3.982-2.51-.953-.397-1.905-.817-2.893-1.105-.906-.264-1.852-.42-2.792-.524a20.434 20.434 0 0 0-2.987-.12c-.948.036-1.894.199-2.835.339-2.252.334-4.309 1.223-6.223 2.404a18.03 18.03 0 0 0-4.63 4.11 19.576 19.576 0 0 0-2.301 3.587 18.047 18.047 0 0 0-1.324 3.72c-.421 1.73-.556 3.478-.496 5.253.047 1.376.254 2.73.613 4.047.385 1.415.92 2.794 1.656 4.065.99 1.712 2.183 3.275 3.656 4.625.929.853 1.913 1.626 2.981 2.273a18.394 18.394 0 0 0 2.94 1.457c1.07.409 2.186.755 3.313.944 1.68.282 3.384.458 5.09.137 1.072-.202 2.16-.334 3.214-.598.779-.196 1.534-.519 2.27-.85.858-.386 1.739-.762 2.51-1.29a30.634 30.634 0 0 0 3.133-2.47c1.096-.98 2.001-2.143 2.782-3.394.605-.97 1.174-1.956 1.541-3.048.186-.55.445-1.08.588-1.641.23-.902.408-1.819.573-2.735.103-.574.142-1.16.213-1.763z"/></g><g><path fill="#df8607" d="M19.462 20.804c1.87 1.713 3.636 3.334 5.405 4.954 1.02.932 2.048 1.855 3.056 2.8.2.187.39.225.639.191.402-.055.81-.073 1.209-.141.162-.028.366-.108.453-.233a666.578 666.578 0 0 0 4.56-6.588c.939-1.378 1.846-2.78 2.75-4.18a.597.597 0 0 0 .031-.502c-1.084-2.133.376-4.66 2.263-5.374 1.93-.73 3.905.167 4.892 1.832.204.343.305.747.476 1.113.058.126.164.279.283.32 2.05.711 4.102 1.41 6.157 2.105 1.648.556 3.299 1.1 4.947 1.655 1.905.64 3.81 1.283 5.71 1.934.279.095.468.032.71-.137 2.262-1.59 5.036-.836 6.099 1.759.897 2.192-.552 4.498-2.405 5.188-1.969.734-4.046-.293-4.897-1.958-.107-.208-.268-.416-.29-.635-.061-.611-.525-.74-.973-.894-1.11-.383-2.223-.758-3.337-1.13-1.513-.504-3.029-.999-4.541-1.505-1.535-.514-3.066-1.04-4.6-1.555-1.065-.357-2.132-.704-3.197-1.057-.05-.016-.095-.04-.142-.064-.445-.22-.825-.279-1.273.106-.667.574-1.5.764-2.387.71a.573.573 0 0 0-.432.211c-.675.99-1.315 2.003-1.99 2.994-1.321 1.937-2.658 3.864-3.987 5.796-.474.689-.951 1.375-1.41 2.074-.058.09-.058.27-.009.372 1.06 2.182-.34 4.65-2.168 5.379-2.083.83-4.5-.32-5.253-2.292a3.56 3.56 0 0 1-.134-2.06c.06-.278-.023-.467-.228-.654-1.957-1.783-3.91-3.57-5.855-5.368-.137-.127-.263-.347-.265-.526-.017-1.208-.007-2.416.012-3.625.004-.306.07-.61.12-1.015zm43.733 2.834c-.082 1.365 1.008 2.281 2.084 2.255 1.236-.03 2.275-.896 2.22-2.225-.048-1.117-.796-2.12-2.112-2.123-1.258-.004-2.266.912-2.192 2.093zm-21.988-6c1.239.085 2.208-.896 2.197-2.087-.012-1.298-.921-2.211-2.107-2.22-1.245-.01-2.213.916-2.232 2.097-.019 1.147.923 2.315 2.142 2.21zm-9.487 15.03c.066-1.337-1.089-2.24-2.14-2.22-1.228.022-2.192.962-2.179 2.148.015 1.277.932 2.2 2.18 2.183 1.215-.016 2.225-.94 2.139-2.11zM9.817 17.04l-1.593-1.432c-.66-.594-1.317-1.19-1.977-1.783-.169-.15-.333-.233-.593-.166-2.167.554-3.889-.46-4.71-2.322C.22 9.703.801 7.869 2.185 6.717c1.785-1.485 4.29-1.015 5.764.807.724.895.825 1.92.605 2.996-.055.268.021.414.203.572a117.59 117.59 0 0 1 2.225 1.965c.095.087.166.303.126.418-.407 1.168-.84 2.328-1.292 3.565zM2.502 9.775c0 1.295.891 2.244 2.123 2.24 1.221-.004 2.287-.93 2.188-2.293-.09-1.243-.946-2.062-2.1-2.052-1.273.012-2.224.851-2.211 2.105z"/></g></g></g></svg>