<svg xmlns="http://www.w3.org/2000/svg" width="60" height="66" viewBox="0 0 60 66"><g><g><g><path fill="#df8607" d="M52.51 19.48l-6.591-6.588 2.365-2.367c.744-.744 1.866-.836 2.5-.206l4.296 4.3c.633.632.54 1.75-.207 2.498zm-7.69-5.49l6.59 6.59-15.716 15.716c-.07.071-.27.27-.552.344-.034.014-.064.029-.098.038l-8.201 2.613c-.23.073-.462.029-.612-.123-.15-.15-.197-.38-.123-.61l2.613-8.201c.012-.033.024-.067.04-.098.071-.282.27-.481.344-.554l2.954-2.952h-9.975a.73.73 0 0 1 0-1.459h11.431zm-11.153 21.8l-4.057-4.058-1.089 3.417 1.732 1.728zm10.055-19.18l-12.25 12.25a.597.597 0 1 0 .844.844l12.25-12.25a.599.599 0 0 0 0-.845.593.593 0 0 0-.844 0zm.105 14.14l2.383-2.383V39.93a3.18 3.18 0 0 1-3.178 3.177H17.418a3.18 3.18 0 0 1-3.177-3.177V6.573a3.18 3.18 0 0 1 3.177-3.176h2.978v-1.92a.794.794 0 0 1 1.589 0v1.92h4.566v-1.92a.794.794 0 0 1 1.589 0v1.92h3.971v-1.92a.794.794 0 0 1 1.59 0v1.92h4.369v-1.92a.794.794 0 0 1 1.588 0v1.92h3.377a3.18 3.18 0 0 1 3.175 3.176v3.12l-2.383 2.383V6.573a.796.796 0 0 0-.792-.795h-3.377v1.259a.794.794 0 1 1-1.588 0V5.778h-4.368v1.259a.795.795 0 1 1-1.59 0V5.778h-3.97v1.259a.795.795 0 1 1-1.59 0V5.778h-4.565v1.259a.794.794 0 1 1-1.59 0V5.778h-2.98a.796.796 0 0 0-.793.795v33.358c0 .439.358.794.794.794h7.505c.438.347.972.544 1.546.544.27 0 .54-.043.8-.126l1.307-.418h14.456a.794.794 0 0 0 .795-.794zm-6.205-17.837c.403 0 .728.324.728.728a.726.726 0 0 1-.728.727H22.084a.728.728 0 1 1 0-1.455zm0 5.873c.403 0 .728.325.728.728a.727.727 0 0 1-.728.728H22.084a.729.729 0 1 1 0-1.456z"/></g><g><path fill="#1e242f" d="M42.59 62.406c.913 0 1.656.73 1.644 1.644 0 .901-.73 1.644-1.644 1.644H17.312a1.645 1.645 0 0 1 0-3.288h-.182c2.922-.365 4.48-1.534 5.309-2.716H37.56c.828 1.182 2.387 2.35 5.309 2.716zm16.986-47.134v30.964l-.012 7.099a3.794 3.794 0 0 1-3.787 3.64H4.21a3.786 3.786 0 0 1-3.786-3.64V15.272a4.298 4.298 0 0 1 4.298-4.298h7.64v3.543h-7.64a.758.758 0 0 0-.755.755V46.99c0 .414.34.755.755.755h50.556a.75.75 0 0 0 .743-.755V18.309c1.338-1.42 1.405-3.573.126-4.851l-2.482-2.484h1.613a4.298 4.298 0 0 1 4.298 4.298zM33.433 52.19a.951.951 0 0 0-.949-.95h-4.98a.951.951 0 0 0-.95.95v.658c0 .523.426.95.95.95h4.98a.95.95 0 0 0 .95-.95z"/></g></g></g></svg>