<svg xmlns="http://www.w3.org/2000/svg" width="60" height="60" viewBox="0 0 60 60"><g><g><g><path fill="#1e242f" d="M.141 33.057C.141 18.175 12.21 6.11 27.09 6.11c4.467 0 8.677 1.089 12.383 3.007a5.175 5.175 0 0 0-.013.937l.302 3.931-2.234 2.233a19.696 19.696 0 0 0-10.432-2.968c-10.941 0-19.813 8.868-19.813 19.807 0 10.938 8.878 19.807 19.82 19.807 10.941 0 19.813-8.87 19.813-19.807 0-3.824-1.088-7.397-2.97-10.429l2.467-2.466 3.429.265c.132.005.264.012.39.012.22 0 .447-.012.667-.044a26.814 26.814 0 0 1 3.152 12.662c0 14.882-12.068 26.946-26.955 26.946C12.21 60.003.141 47.939.141 33.057zm19.99 0a6.958 6.958 0 0 0 6.959 6.963 6.963 6.963 0 0 0 6.946-7.492l4.977-4.975.107-.107a13.176 13.176 0 0 1 1.246 5.61c0 7.328-5.94 13.266-13.27 13.266-7.33 0-13.27-5.944-13.27-13.272s5.94-13.265 13.27-13.265c2.007 0 3.908.447 5.613 1.245l-.107.107-4.977 4.975a6.967 6.967 0 0 0-7.494 6.944z"/></g><g><path fill="#df8607" d="M54.812 8.966l1.599-1.598a1.86 1.86 0 0 0 0-2.635L55.303 3.62a1.85 1.85 0 0 0-2.63 0l-1.83 1.83-.378-4.874a.62.62 0 0 0-.63-.578.614.614 0 0 0-.44.182L42.191 7.38a3.15 3.15 0 0 0-.913 2.465l.02.283.345 4.51-2.605 2.604-4.687 4.686-.107.108-4.537 4.535-2.013 2.012a1.551 1.551 0 0 0-.453.988l-.126 1.579a1.572 1.572 0 0 0 1.567 1.698h.082l1.667-.082a1.55 1.55 0 0 0 1.032-.459l1.994-1.994 4.537-4.535.107-.107 4.687-4.686 2.832-2.83 4.115.314.182.013c.082.006.164.006.24.006.83 0 1.629-.327 2.227-.918l7.198-7.196a.628.628 0 0 0-.397-1.07z"/></g></g></g></svg>