<svg xmlns="http://www.w3.org/2000/svg" width="103" height="56" viewBox="0 0 103 56"><g><g><g><path fill="#df8607" d="M102.434 43.507a3.507 3.507 0 0 1-2.12 1.505 3.49 3.49 0 0 1-2.741-.465l-9.379-6.084c-1.104-.712-1.62-1.946-1.547-3.173l-1.61-1.043a15.98 15.98 0 0 1-8.42 5.202c-8.624 2.093-17.34-3.219-19.434-11.844-2.088-8.622 3.222-17.333 11.842-19.43 8.623-2.088 17.34 3.22 19.428 11.844.98 4.025.325 8.065-1.509 11.446l1.543 1.001c.274-.147.565-.256.864-.33a3.422 3.422 0 0 1 2.668.431l9.378 6.086a3.506 3.506 0 0 1 1.037 4.854zM85.566 20.721c-1.713-7.036-8.803-11.36-15.84-9.646-7.04 1.702-11.355 8.795-9.644 15.828 1.707 7.037 8.79 11.36 15.834 9.65 7.027-1.71 11.353-8.798 9.65-15.832z"/></g><g><path fill="#1e242f" d="M39.735 40.567H26.039c-4.304-3.511-5.305-9.75-2.147-14.335 3.329-4.833 10.018-6.015 14.922-2.644 4.9 3.378 6.176 10.048 2.847 14.881a10.357 10.357 0 0 1-1.926 2.098zm-3.291-13.543c-2.936-2.027-6.964-1.283-8.992 1.66-2.028 2.938-1.279 6.968 1.657 8.988a6.462 6.462 0 0 0 8.992-1.655 6.46 6.46 0 0 0-1.657-8.993zm36.423 7.09c-.506 0-1.003-.044-1.493-.114V13.28a10.467 10.467 0 0 1 1.52-.117c1.095 0 2.152.176 3.152.492V33.61c-.23.072-.456.148-.693.205-.818.199-1.654.3-2.486.3zM.631 46.034V2.375C.631 1.337 1.47.498 2.51.498h71.66c1.035 0 1.877.84 1.877 1.878v2.8a18.957 18.957 0 0 0-3.17-.267c-.626 0-1.252.04-1.876.102H5.3V43.3h66.074v-.992a18.642 18.642 0 0 0 4.672-.214v3.94a1.879 1.879 0 0 1-1.878 1.878H2.508a1.876 1.876 0 0 1-1.877-1.877zM37.153 2.81a1.186 1.186 0 1 0 2.372 0 1.186 1.186 0 0 0-2.372 0zM62.566 24.36a.578.578 0 0 0 .131-.807l-.277-.388c.05-1.15.294-2.282.72-3.359l1.04-.104a.583.583 0 0 0 .524-.64l-.177-1.745a10.335 10.335 0 0 1 4.119-3.25v19.16a10.451 10.451 0 0 1-5.94-7.121 10.553 10.553 0 0 1-.256-1.662zm2.283 16.207H47.806l-1.326-1.25c.37-.738.69-1.486.933-2.261l3.491-.252.073-1.005.202-2.527.08-.999-3.19-.755a16.037 16.037 0 0 0-.341-2.351l2.972-2.025-.43-.904-1.089-2.285-.436-.906-3.205.957a14.617 14.617 0 0 0-1.434-1.834l1.593-3.29-.827-.565-2.09-1.444-.826-.568-2.314 2.455a15.973 15.973 0 0 0-2.143-.9l-.27-3.634-.994-.082-2.532-.196-.994-.084-.77 3.246c-.792.034-1.576.128-2.351.285l-2.014-2.967-.902.43-2.292 1.091-.903.436.928 3.091a14.49 14.49 0 0 0-1.935 1.486l-3.16-1.526-.566.826-1.44 2.085-.568.824 2.341 2.21c-.373.74-.69 1.493-.933 2.26l-3.486.258-.081 1.002-.2 2.526-.075.994 3.192.759c.051.795.166 1.58.333 2.355l-2.969 2.019.426.906 1.011 2.109H8.033V7.743h54.953a18.676 18.676 0 0 0-4.078 3.444l-.233-.104a.582.582 0 0 0-.767.292l-.777 1.728c-.015.034.003.066-.004.099a5.633 5.633 0 0 0-2.217.31l-1.08-1.494a.58.58 0 0 0-.81-.137l-2.007 1.445a.587.587 0 0 0-.133.815l1.105 1.54c.02.03.06.03.087.053-.166.251-.326.502-.453.785-.19.42-.306.852-.388 1.285l-1.835.184a.582.582 0 0 0-.518.639l.249 2.463a.577.577 0 0 0 .635.52l1.884-.187c.04-.004.06-.04.097-.052.333.663.79 1.26 1.368 1.754l-.763 1.692c-.129.295 0 .639.295.771l1.71.77a18.688 18.688 0 0 0 10.495 14.209zm11.98 10.317v1.156a3.465 3.465 0 0 1-3.467 3.462H4.065A3.463 3.463 0 0 1 .602 52.04v-1.156c0-.133.023-.258.037-.384h26.353c.055.536.495.962 1.047.962h21.35c.554 0 .991-.426 1.045-.962H76.79c.016.126.04.25.04.384z"/></g></g></g></svg>