<svg xmlns="http://www.w3.org/2000/svg" width="61" height="71" viewBox="0 0 61 71"><g><g><path fill="#1e242f" d="M23.733 46.918c-3.727 0-12.489-4.485-12.49-15.232 0-8.412 1.136-15.232 12.49-15.232 11.354 0 12.489 6.82 12.489 15.232 0 10.747-8.763 15.232-12.489 15.232zM13.11 29.144c-.036.84-.048 1.692-.048 2.542 0 5.253 2.32 8.508 4.266 10.314 2.451 2.275 5.173 3.1 6.405 3.1 1.232 0 3.954-.825 6.406-3.1 1.946-1.806 4.265-5.06 4.265-10.314 0-.957-.015-1.92-.063-2.862-11.942 2.65-14.375-3.25-14.375-3.25-4.08-.087-5.978 1.873-6.856 3.57zM46.92 62.54a.873.873 0 0 1-.04.43c-.109.307-2.89 7.5-23.147 7.5-20.257 0-23.04-7.193-23.148-7.5a.88.88 0 0 1-.038-.43c.234-1.46 1.56-8.85 4.59-10.892 1.791-1.207 8.14-4.627 10.788-6.041a.877.877 0 0 1 .953.083c1.403 1.102 2.94 1.844 4.569 2.207.279.062.51.257.62.521l1.666 4.049 1.667-4.049a.874.874 0 0 1 .62-.521c1.627-.363 3.164-1.105 4.567-2.207a.876.876 0 0 1 .954-.083l.045.024c2.679 1.431 8.952 4.782 10.75 6.022 2.633 1.815 3.945 6.922 4.583 10.887zm-25.531-3.226a.154.154 0 0 0-.22-.14l-3.707 1.722a.155.155 0 0 0-.09.14v.664c0 .06.036.115.09.14l3.707 1.723a.159.159 0 0 0 .149-.01.155.155 0 0 0 .07-.13v-.819a.157.157 0 0 0-.091-.142l-2.5-1.094 2.5-1.094a.154.154 0 0 0 .092-.141zm3.77-1.138a.154.154 0 0 0-.148-.198h-.78a.152.152 0 0 0-.148.11l-1.653 5.6a.152.152 0 0 0 .025.136c.028.04.074.063.123.063h.78a.154.154 0 0 0 .148-.111zm4.935 2.837a.155.155 0 0 0-.09-.14l-3.709-1.7a.154.154 0 0 0-.218.14v.82c0 .06.037.117.093.141l2.553 1.094-2.553 1.094a.154.154 0 0 0-.093.142v.819a.155.155 0 0 0 .154.154.146.146 0 0 0 .064-.014l3.708-1.699a.155.155 0 0 0 .091-.14zm-8.763-25.09c-.931.486-2.043.588-2.812.588-.987 0-1.978-.173-2.466-.43-1.053-.555-1.147-.956-1.53-3.28a.65.65 0 0 0-.074-.22.447.447 0 0 0-.052-.063c-.105-.114-.257-.278-.247-.659l-.003-.18v-.066a6.394 6.394 0 0 1-.002-.447c.033-.57.532-.8.791-.843.935-.192 2-.29 3.16-.29.501 0 1.017.019 1.535.056l.089.006c1.057.075 1.64.116 2.347.433.142.064.301.14.473.229.243.125.605.265.789.306.311.068.495.068.808 0 .184-.041.546-.18.789-.306.17-.088.33-.165.473-.23.707-.316 1.29-.357 2.346-.432l.09-.006a21.3 21.3 0 0 1 1.535-.056c1.16 0 2.226.098 3.172.293.251.04.746.27.779.84.006.105.002.286-.002.448v.022c-.002.092-.004.175-.003.223.01.38-.143.545-.243.654a.428.428 0 0 0-.056.067.626.626 0 0 0-.074.22c-.383 2.325-.477 2.726-1.53 3.281-.488.257-1.48.43-2.466.43-.77 0-1.882-.102-2.812-.588-1.382-.722-1.885-3.16-1.906-3.263-.01-.077-.119-.19-.463-.19l-.035.001c-.446 0-.49.162-.49.164-.021.11-.506 2.556-1.91 3.288zm4.038-4.081c-.003.007-.325.947.64 2.567.447.752 1.52 1.2 2.87 1.2.708 0 1.409-.134 1.873-.359.981-.476 1.123-1.763 1.12-2.488-.002-.32-.11-.842-.265-1.079-.26-.396-.71-.642-2.158-.642-.332 0-.712.013-1.16.039-2.6.15-2.895.7-2.92.762zm-9.776.92c-.003.726.14 2.013 1.12 2.49.465.224 1.165.359 1.875.359 1.349 0 2.421-.45 2.869-1.202.95-1.597.648-2.545.644-2.554-.04-.1-.379-.627-2.924-.775-.449-.026-.829-.04-1.16-.04-1.448 0-1.9.247-2.159.643-.154.236-.263.758-.265 1.079z"/></g><g><path fill="#df8607" d="M40.197 8.344c0 .769-.361 1.279-.973 1.279a.853.853 0 0 1-.825-.667 1.401 1.401 0 0 1-.028-.297v-.621c0-.084.01-.176.028-.25.092-.418.445-.714.843-.714.63 0 .955.546.955 1.27zm10.974 0c0 .769-.361 1.279-.973 1.279a.853.853 0 0 1-.825-.667 1.396 1.396 0 0 1-.028-.297v-.621c0-.084.01-.176.028-.25.093-.418.445-.714.844-.714.63 0 .954.546.954 1.27zm9.2-5.331v16.99a2.548 2.548 0 0 1-2.55 2.548h-8.494a.844.844 0 0 0-.552.205L44.23 26.65V23.4a.85.85 0 0 0-.85-.85h-6.088a13.534 13.534 0 0 0-8.352-7.803V3.013A2.548 2.548 0 0 1 31.488.465h26.334a2.548 2.548 0 0 1 2.548 2.548zM41.624 8.279c0-1.446-.89-2.309-1.882-2.309-.658 0-1.177.25-1.511.733h-.019l-.064-.63h-1.224c.018.416.037.926.037 1.52v4.848h1.409v-2.253h.019c.203.297.63.52 1.177.52 1.01 0 2.058-.78 2.058-2.43zm2.015 5.904h-1.418v3.596c0 .9-.074 1.26-.278 1.474-.176.186-.463.27-.834.297l.139 1.103c.677 0 1.335-.167 1.752-.556.417-.39.64-.992.64-1.984zm.037-1.26c-.009-.409-.287-.715-.741-.715-.464 0-.751.306-.751.714 0 .39.287.705.732.705.473 0 .76-.315.76-.705zm.987-5.812c.529 0 .733.407.733 1.001v2.493h1.409v-2.65c0-1.363-.686-1.985-1.586-1.985-.259 0-.528.065-.732.177-.222.12-.408.269-.556.463h-.018V4.024h-1.41v6.581h1.41V7.917c0-.102.009-.222.046-.315.102-.25.334-.491.704-.491zm3.25 10.233c-.01-.668-.372-1.103-1.234-1.4-.556-.194-.732-.306-.732-.519 0-.232.195-.371.538-.371.389 0 .778.148.982.26l.25-.974c-.278-.139-.75-.26-1.279-.26-1.121 0-1.844.64-1.844 1.484-.01.538.352 1.047 1.288 1.362.529.177.668.288.668.52 0 .231-.177.38-.603.38-.417 0-.955-.186-1.214-.343l-.25 1.01c.342.185.87.315 1.464.315 1.298 0 1.965-.621 1.965-1.464zm4.685-9.065c0-1.446-.89-2.309-1.882-2.309-.658 0-1.177.25-1.51.733h-.02l-.064-.63h-1.224c.019.416.037.926.037 1.52v4.848h1.41v-2.253h.018c.204.297.63.52 1.177.52 1.01 0 2.058-.78 2.058-2.43z"/></g></g></svg>