<svg xmlns="http://www.w3.org/2000/svg" width="62" height="60" viewBox="0 0 62 60"><g><g><g><path fill="#df8607" d="M52.307 59.976c-2.176-.027-4.031-.492-5.646-1.7-1.47-1.099-2.577-2.483-3.098-4.27-.167-.574-.257-1.174-.33-1.769-.088-.708-.085-1.428-.183-2.134-.12-.862-.397-1.646-1.058-2.299-3.204-3.167-6.38-6.364-9.566-9.55-3.395-3.398-6.789-6.796-10.185-10.193-1.958-1.958-3.922-3.908-5.875-5.872-.658-.662-1.464-1.061-2.317-1.391-.632-.245-1.28-.226-1.947-.203-.737.025-1.48-.056-2.218-.118-1.001-.085-1.934-.415-2.839-.837-1.429-.668-2.613-1.652-3.641-2.833a14.014 14.014 0 0 1-2.432-4 11.719 11.719 0 0 1-.584-1.992c-.105-.51.174-.921.602-1.198.465-.303.942-.273 1.423-.006 1.855 1.033 3.715 2.058 5.572 3.09.657.365 1.257.164 1.837-.18.471-.28.849-.67 1.115-1.144.436-.774.876-1.55 1.25-2.356a2.768 2.768 0 0 0 .147-1.982 1.524 1.524 0 0 0-.766-.945L6.25 3.184c-.47-.258-.775-.628-.794-1.188-.018-.535.23-.928.673-1.197.162-.098.357-.162.546-.195.93-.162 1.862-.307 2.793-.46.988-.163 1.985-.14 2.971-.045 1.349.131 2.636.51 3.827 1.178 1.711.962 3.02 2.322 3.948 4.045.38.705.633 1.456.796 2.246.221 1.07.26 2.15.327 3.234.057.917.332 1.786.726 2.61.246.518.486 1.056.831 1.506.426.556.95 1.04 1.446 1.538 2.012 2.022 4.03 4.037 6.046 6.053 3.358 3.356 6.718 6.71 10.075 10.067 2.791 2.79 5.58 5.586 8.371 8.378.474.474 1.072.723 1.704.895.137.037.295-.01.443-.01.536-.005 1.077-.053 1.607.005.66.072 1.324.184 1.96.368.819.236 1.57.628 2.293 1.1 1.535 1.003 2.647 2.367 3.536 3.935.542.955.958 1.965 1.206 3.039.13.558-.301 1.288-.844 1.478-.438.152-.822.081-1.22-.141a338.816 338.816 0 0 0-4.826-2.656c-.482-.26-.978-.127-1.389.182-.313.236-.625.516-.83.844-.413.659-.78 1.35-1.11 2.054a2.337 2.337 0 0 0-.205 1.356c.093.62.516.915 1.02 1.184 1.43.767 2.849 1.554 4.268 2.34.603.335.825.834.702 1.525-.084.475-.606.92-1.173 1.015-.776.13-1.548.289-2.327.4-.504.073-1.017.084-1.34.109z"/></g><g><path fill="#1e242f" d="M22.253 6.574c-.006-.269-.011-.538-.008-.806.005-.523.244-.863.722-.998.811-.228 1.625-.446 2.44-.655.506-.129.87.02 1.132.475.552.956 1.087 1.921 1.629 2.883.255.452.503.908.773 1.352a.38.38 0 0 0 .277.157c1.319-.01 2.638-.032 3.957-.067a.45.45 0 0 0 .318-.2c.794-1.394 1.577-2.795 2.36-4.194.329-.587.69-.745 1.345-.572.779.206 1.556.417 2.334.629.403.11.696.483.699.904.005.697.001 1.394.001 2.092h-.057c0 .92.006 1.84-.005 2.76-.002.221.085.338.279.422a19.88 19.88 0 0 1 3.257 1.798c.19.129.338.137.531.022 1.369-.82 2.741-1.63 4.112-2.445.56-.333.936-.291 1.397.166.501.498.988 1.01 1.504 1.49.557.52.668.934.248 1.642-.774 1.307-1.548 2.614-2.332 3.915-.114.19-.09.31.026.496a130.736 130.736 0 0 1 1.908 3.165c.116.197.213.308.462.303 1.57-.027 3.142-.024 4.712-.062.682-.016 1.109.324 1.23.941.148.743.396 1.466.589 2.201.143.543-.017.92-.506 1.196a647.269 647.269 0 0 1-4.08 2.278c-.21.117-.297.25-.29.505.038 1.233.058 2.468.064 3.703.002.238.078.362.283.475 1.42.785 2.835 1.58 4.247 2.38.454.256.612.687.465 1.251-.21.807-.43 1.61-.652 2.413-.097.35-.487.653-.855.651a361.98 361.98 0 0 1-4.518-.055c-.625-.013-.624-.034-.895.522-.065.133-.127.267-.19.4-.133.003-.259.007-.38.008-.078 0-.148.005-.209.01-.378-.119-.631-.255-.808-.431l-3.977-3.98-.52-.52.02-.054c.397-1.054.557-2.161.692-3.28.139-1.152.044-2.285-.105-3.415a13.09 13.09 0 0 0-.86-3.186 14.454 14.454 0 0 0-2.12-3.641 14.395 14.395 0 0 0-4.625-3.813 14.092 14.092 0 0 0-4.199-1.41c-1.4-.236-2.8-.29-4.212-.108-.977.124-1.93.333-2.858.643a2468.03 2468.03 0 0 1-2.032-2.036c-.376-.37-.73-.72-1.005-1.08-.209-.272-.391-.658-.584-1.066l-.075-.157c-.347-.729-.535-1.392-.575-2.03l-.026-.432c-.057-.976-.116-1.986-.33-3.023-.038-.182-.08-.358-.125-.532zm19.034 43.508l-.069.029c-.23.085-.326.22-.32.477.04 1.57.07 3.14.092 4.712.01.693-.255 1.018-.916 1.194-.716.191-1.43.39-2.142.591-.621.175-1.008.026-1.331-.544a515.23 515.23 0 0 1-2.246-4.003c-.121-.22-.252-.318-.52-.31-1.243.037-2.487.055-3.73.065-.205.002-.321.065-.419.241a952.331 952.331 0 0 1-2.402 4.299c-.25.443-.658.604-1.225.46-.834-.212-1.664-.441-2.495-.67-.305-.084-.604-.481-.602-.834.007-1.152.031-2.304.047-3.456.007-.512.021-1.023.006-1.534a.4.4 0 0 0-.197-.29 25.149 25.149 0 0 1-3.409-1.875c-.1-.065-.316-.044-.43.021-1.146.667-2.282 1.351-3.422 2.029-.263.157-.529.309-.794.461-.428.247-.853.226-1.203-.111-.561-.541-1.098-1.107-1.646-1.662-.078-.078-.177-.14-.242-.228-.255-.343-.336-.65-.084-1.083.64-1.097 1.282-2.194 1.924-3.29.183-.312.389-.613.549-.936.052-.105.043-.304-.024-.397-.754-1.05-1.433-2.142-1.977-3.316-.077-.166-.197-.215-.378-.21-1.598.035-3.196.065-4.795.09-.67.01-1.009-.285-1.175-.944a51.31 51.31 0 0 0-.576-2.082c-.187-.624-.029-1.049.556-1.377 1.326-.745 2.65-1.493 3.983-2.224.238-.13.313-.273.305-.543-.038-1.254-.043-2.508-.077-3.762a.48.48 0 0 0-.198-.348c-1.41-.803-2.828-1.592-4.245-2.382-.5-.278-.688-.682-.544-1.239.21-.815.432-1.63.658-2.441.11-.395.499-.678.921-.682.521-.006 1.042-.002 1.563-.002v.06c1.069 0 2.138-.008 3.206.006.046 0 .088 0 .128-.005.08.001.162.003.244.003.115 0 .229-.002.338-.006.192-.007.351-.012.504-.012.376 0 .62.033.818.11.844.326 1.373.635 1.767 1.031.955.96 1.925 1.93 2.879 2.881-.199.686-.396 1.373-.536 2.071-.144.724-.22 1.47-.251 2.208-.026.61.013 1.23.104 1.834.129.858.292 1.716.51 2.556.329 1.263.89 2.433 1.578 3.542a14.38 14.38 0 0 0 3.816 4.084c1.017.738 2.107 1.362 3.303 1.756.939.309 1.892.619 2.864.773 1.093.173 2.207.322 3.328.129.62-.108 1.257-.13 1.87-.261.555-.12 1.1-.287 1.644-.453 1.5 1.5 3.018 3.013 4.527 4.505.315.31.493.702.588 1.294z"/></g></g></g></svg>