<svg xmlns="http://www.w3.org/2000/svg" width="61" height="56" viewBox="0 0 61 56"><g><g><g><path fill="#df8607" d="M22.978 24.027l3.78 4.232s-.692 2.644-3.991 5.058c-1.48 1.08-4.198 1.778-5.764 1.571 1.002-1.453.732-2.811.732-2.811-.4 2.094-1.452 2.776-3.098 2.547-.921-.181-1.505-.38-1.505-.38 3.977-.313 2.064-3.897 4.382-7.445 1.455-2.23 5.464-2.772 5.464-2.772zM50.835 4.23c-3.614 4.16-9.532 10.967-13.148 15.128-3.617 4.16-7.327 6.721-8.243 5.695L26.1 21.317c-.916-1.027 2.042-4.432 6.577-7.563L49.166 2.36C53.7-.772 54.45.07 50.835 4.23zM29.149 25.755c.282.312.192.847-.196 1.196-.272.244-.617.32-.896.241-.04.054-.073.11-.126.157-.347.31-.83.335-1.08.055l-3.372-3.771c-.25-.28-.171-.758.176-1.066.053-.048.11-.076.169-.109-.046-.287.068-.622.342-.865.385-.348.929-.375 1.208-.063z"/></g><g><path fill="#1e242f" d="M38.561 49.92v3.302H22.436V49.92zm4.951 5.137v.411H17.485v-.411c0-.607.488-1.1 1.092-1.1H42.42c.604 0 1.092.493 1.092 1.1zM61.01 6.171v41.297c0 .837-.683 1.514-1.52 1.514H1.51c-.843 0-1.52-.677-1.52-1.514V6.171c0-.84.677-1.52 1.52-1.52h40.404l-5.288 3.655H3.763v30.996h53.464V8.306h-6.454l1.269-1.46c.697-.803 1.273-1.523 1.736-2.194h5.711c.838 0 1.52.678 1.52 1.52z"/></g></g></g></svg>