<svg xmlns="http://www.w3.org/2000/svg" width="106" height="60" viewBox="0 0 106 60"><g><g><g><path fill="#1e242f" d="M71.756 56.258a1.875 1.875 0 1 1 0 3.752H34.244a1.875 1.875 0 1 1 0-3.752h6.151l1.25-3.75h22.71l1.25 3.75zM47.373 35.626A5.632 5.632 0 0 1 53 30a5.633 5.633 0 0 1 5.627 5.626c0 .648-.15 1.273-.364 1.876H47.737c-.214-.603-.364-1.228-.364-1.876zm-7.03-3.282a12.89 12.89 0 0 1 1.389-3.342 1.876 1.876 0 0 0-.29-2.279l-1.705-1.707 2.652-2.652 1.707 1.707a1.87 1.87 0 0 0 2.28.287 12.905 12.905 0 0 1 3.342-1.389 1.875 1.875 0 0 0 1.406-1.817v-2.406h3.751v2.406c0 .856.58 1.604 1.407 1.817 1.165.3 2.288.768 3.341 1.39.736.439 1.676.318 2.28-.288l1.708-1.708 2.652 2.653-1.706 1.707a1.877 1.877 0 0 0-.289 2.279 12.869 12.869 0 0 1 1.388 3.342 1.877 1.877 0 0 0 1.818 1.407h2.406v3.751h-7.749c.126-.618.247-1.239.247-1.876 0-5.17-4.207-9.377-9.378-9.377-5.17 0-9.378 4.207-9.378 9.377 0 .637.12 1.258.247 1.876h-7.75v-3.751h2.407c.856 0 1.603-.579 1.817-1.407zm-19.354 8.91H85.01v1.875c0 3.102-2.65 5.627-5.752 5.627H26.616a5.633 5.633 0 0 1-5.627-5.627zM77.414 20.7c0 5.631 3.054 10.548 7.596 13.186v3.616H73.631v-5.627c0-1.036-.839-1.875-1.875-1.875h-2.898a16.378 16.378 0 0 0-.667-1.607l2.05-2.051a1.875 1.875 0 0 0 0-2.652l-5.304-5.305a1.875 1.875 0 0 0-2.652 0l-2.052 2.052a16.818 16.818 0 0 0-1.606-.669v-2.897c0-1.037-.84-1.876-1.876-1.876H49.25a1.874 1.874 0 0 0-1.876 1.876v2.897c-.546.194-1.081.417-1.606.669l-2.052-2.052a1.875 1.875 0 0 0-2.652 0L35.76 23.69a1.875 1.875 0 0 0 0 2.652l2.05 2.051c-.252.526-.473 1.06-.667 1.607h-2.898a1.874 1.874 0 0 0-1.876 1.875v5.627H20.99v-3.671c4.49-2.652 7.503-7.54 7.503-13.131 0-5.592-3.013-10.48-7.503-13.131V5.617A5.633 5.633 0 0 1 26.616-.01h52.642c3.102 0 5.752 2.524 5.752 5.627v1.897c-4.542 2.638-7.596 7.555-7.596 13.186z"/></g><g><path fill="#df8607" d="M19.268 21.723a4.866 4.866 0 1 1-9.733 0 4.866 4.866 0 1 1 9.733 0zm-1.56 0a3.305 3.305 0 1 0-6.611 0 3.305 3.305 0 0 0 6.61 0zM7.422 16.95h1.47v1.47h-1.47zm18.9 3.673c0 7.181-5.842 13.024-13.023 13.024-7.182 0-13.024-5.843-13.024-13.024C.276 13.44 6.118 7.598 13.3 7.598c7.181 0 13.024 5.842 13.024 13.024zm-4.208-2.939a2.204 2.204 0 0 0-2.204-2.204h-1.469l-2.204-2.203h-3.673l-2.204 2.203h-.734v-.367a.368.368 0 0 0-.368-.367H7.055a.368.368 0 0 0-.367.367v.367a2.204 2.204 0 0 0-2.204 2.204v8.08c0 1.218.987 2.205 2.204 2.205h13.223a2.204 2.204 0 0 0 2.204-2.204zm77.038 7.94h-1.29v-1.291h1.29zm-3.065-5.001l-5.324 3.226v-6.452zm3.065-3.71h-1.29V15.62h1.29zm0 2.903h-1.29v-1.29h1.29zm0 2.904h-1.29v-1.291h1.29zm-11.615-2.904h-1.29v-1.29h1.29zm18.186.807c0 7.181-5.842 13.024-13.024 13.024-7.181 0-13.024-5.843-13.024-13.024 0-7.182 5.843-13.024 13.024-13.024 7.182 0 13.024 5.842 13.024 13.024zm-5.28-5.969H84.956V26.59h15.486zm-12.906 10.97h-1.29v-1.291h1.29zm0-2.904h-1.29v-1.291h1.29zm0-5.807h-1.29V15.62h1.29z"/></g></g></g></svg>