<svg xmlns="http://www.w3.org/2000/svg" width="62" height="61" viewBox="0 0 62 61"><g><g><g><path fill="#df8607" d="M8.513 22.01v-3.35a61.448 61.448 0 0 0-3.698 4.272c1.163 1.33 2.429 2.2 3.739 3.468-.014-1.563-.02-2.774-.04-4.39zm5.754-4.655l.101-3.748.556-.367.557.367.102 3.747c.607-1.64 1.214-4.343 1.508-5.885 1.178.329 3.027.76 4.402 1.356.704.306.82 1.188 1.363 1.777a46.07 46.07 0 0 0 4.753 4.495c2.782-1.4 4.772-2.826 7.094-4.507.573-.436 1.138-.551 1.62-.456l.473-1.636a.344.344 0 0 1 .426-.236c.183.052.29.243.237.425l-.499 1.727c.844.615 1.07 2.015-.208 2.988-3.145 2.393-4.791 3.831-8.21 5.858-.725.431-1.659.452-2.365-.093-1.491-1.151-3.13-2.411-4.509-3.744-.128.984-.036 2.109-.059 2.82a307.882 307.882 0 0 1-.357 11.096H8.638l-.146-2.19c-2.43-1.812-5.784-4.473-7.854-6.613-.784-.811-.842-1.986-.154-2.882 2.22-2.896 4.795-5.74 7.701-8.614.367-.362.462-.353 1.209-.56 1.044-.287 2.05-.657 3.093-.952.378 1.505 1.188 4.35 1.78 5.827zM18.705 4.26c0 1.926-1.392 6.086-3.745 6.086-2.352 0-3.743-4.16-3.743-6.086 0-1.993 1.675-3.608 3.743-3.608 2.068 0 3.745 1.615 3.745 3.608zm19.86 13.113a.209.209 0 0 1 .246-.164l.673.122c.012.003.02.017.033.022.139-.228.323-.428.545-.59l-.222-.63a.208.208 0 0 1 .129-.267l.843-.297c.11-.038.229.019.268.128l.225.644c.006.012-.002.023 0 .036.273.006.543.066.788.178l.434-.504a.21.21 0 0 1 .296-.025l.678.58c.088.077.099.21.024.296l-.444.52c-.008.01-.024.008-.034.017.052.094.103.19.14.295.055.156.083.315.1.474l.655.12c.112.022.19.133.168.246l-.165.876a.209.209 0 0 1-.244.168l-.672-.124c-.015-.003-.021-.017-.035-.022-.139.23-.322.428-.545.589l.223.63a.21.21 0 0 1-.128.268l-.845.296a.21.21 0 0 1-.269-.127l-.226-.644c-.005-.013.003-.024.001-.036a2.024 2.024 0 0 1-.787-.176l-.432.504a.212.212 0 0 1-.298.021l-.679-.579a.208.208 0 0 1-.022-.294l.444-.521c.01-.01.022-.009.032-.017-.051-.094-.1-.189-.138-.293a2.095 2.095 0 0 1-.102-.475l-.652-.121a.211.211 0 0 1-.17-.245zm1.768 1.364a.979.979 0 0 0 1.248.597.976.976 0 1 0-.65-1.84.975.975 0 0 0-.598 1.243zm10.353-7.243c.885.936.84 2.411-.1 3.292a2.338 2.338 0 0 1-3.299-.097 2.324 2.324 0 0 1 .098-3.294 2.34 2.34 0 0 1 3.301.099zm-7.052-2.492l.264-.247.668-.628.263-.248.96.748c.231-.164.47-.312.716-.438l-.103-1.309.351-.083.893-.21.35-.083.454 1.113c.284-.03.569-.04.854-.027l.555-1.167.346.104.88.263.344.106-.16 1.152c.267.117.525.26.77.423l1.045-.717.248.263.628.664.248.263-.715.915c.174.243.329.493.458.754l1.259-.1.083.352.211.89.081.35-1.098.444c.026.286.028.572.01.858l1.171.555-.103.347-.265.875-.105.345L54 15.366c-.115.25-.255.493-.411.728l.747 1.085-.265.248-.665.626-.264.248-.96-.748a5.56 5.56 0 0 1-.716.44l.105 1.307-.354.084-.889.21-.352.083-.45-1.111c-.287.03-.57.04-.857.026l-.557 1.166-.347-.104-.876-.262-.348-.106.162-1.15a5.408 5.408 0 0 1-.772-.424l-1.043.718-.25-.265-.629-.663-.246-.263.716-.916a5.5 5.5 0 0 1-.457-.754l-1.26.101-.082-.354-.21-.89-.083-.35 1.097-.444a5.724 5.724 0 0 1-.008-.856l-1.172-.558.104-.345.263-.874.106-.347 1.198.165c.113-.251.253-.495.41-.73zm2.516 6.755c1.453 1.537 3.903 1.592 5.469.124 1.564-1.471 1.656-3.917.203-5.455-1.454-1.539-3.906-1.594-5.472-.124-1.562 1.47-1.652 3.915-.2 5.455z"/></g><g><path fill="#1e242f" d="M52.113 46.286c-.56-.242-2.346-2.283-2.346-5.208a4.058 4.058 0 0 1 4.061-4.053 4.058 4.058 0 0 1 4.064 4.053c0 2.908-1.744 4.97-2.307 5.214a14.144 14.144 0 0 0-1.757-.105c-.334 0-1.004.01-1.715.1zm8.12 3.05c.72 2.317 1.296 8.852 1.3 11.17H.561c.002-2.318.58-8.853 1.3-11.17.201-.643 1.773-1.178 2.98-1.524-.201-.338 1.025-.87 3.423-.87 2.4 0 3.625.533 3.424.87 1.207.346 2.78.88 2.98 1.524.535 1.72.99 5.763 1.19 8.68.201-2.917.657-6.96 1.19-8.68.2-.643 1.774-1.178 2.981-1.524-.2-.338 1.024-.87 3.424-.87s3.624.533 3.424.87c1.206.346 2.778.88 2.979 1.524.534 1.72.99 5.763 1.191 8.681.2-2.918.655-6.96 1.19-8.68.2-.644 1.774-1.179 2.98-1.525-.2-.338 1.024-.87 3.424-.87s3.625.533 3.424.87c1.207.346 2.779.88 2.98 1.524.533 1.719.99 5.758 1.19 8.675.201-2.917.657-6.956 1.19-8.675.201-.643 1.773-1.178 2.981-1.524-.2-.338 1.024-.87 3.422-.87 2.4 0 3.626.533 3.424.87 1.207.346 2.78.88 2.98 1.524zm-53.684-3.05c-.559-.242-2.346-2.283-2.346-5.208a4.057 4.057 0 0 1 4.061-4.053 4.058 4.058 0 0 1 4.064 4.053c0 2.908-1.744 4.97-2.307 5.214a14.145 14.145 0 0 0-1.757-.105c-.334 0-1.004.01-1.715.1zm15.19 0c-.562-.242-2.348-2.283-2.348-5.208a4.057 4.057 0 0 1 4.062-4.053 4.057 4.057 0 0 1 4.061 4.053c0 2.908-1.741 4.97-2.304 5.214a14.147 14.147 0 0 0-1.757-.105c-.336 0-1.006.01-1.715.1zm15.188 0c-.562-.242-2.349-2.283-2.349-5.208a4.058 4.058 0 0 1 4.063-4.053 4.057 4.057 0 0 1 4.062 4.053c0 2.908-1.743 4.97-2.305 5.214a14.164 14.164 0 0 0-1.757-.105c-.336 0-1.006.01-1.714.1zM23.313 27.271c0-.678.55-1.227 1.23-1.227h.445v-2.562l.785.606c.277.213.579.371.896.475v1.481H58.51V2.946H26.67v13.907a45.15 45.15 0 0 1-1.68-1.617V2.946h-.446c-.68 0-1.23-.55-1.23-1.226 0-.677.55-1.226 1.23-1.226h36.093c.68 0 1.23.549 1.23 1.226 0 .677-.55 1.226-1.23 1.226h-.445v23.098h.445a1.228 1.228 0 1 1 0 2.454H24.543c-.68 0-1.23-.55-1.23-1.227z"/></g></g></g></svg>