<svg xmlns="http://www.w3.org/2000/svg" width="36" height="36" viewBox="0 0 36 36"><g><g><path fill="#fff" d="M.78 14.994a.582.582 0 0 1 .098-1.034L34.665.562a.582.582 0 0 1 .699.17c.143.18.163.42.067.617L24.368 28.134a.582.582 0 0 1-.822.286l-9.76-5.422-1.039 6.75a.584.584 0 0 1-1.114.137L7.04 18.977zm1.59-.37l5.135 3.268L29.451 3.884zm5.864 4.187l3.673 8.722.852-5.54a.582.582 0 0 1 .17-.33l7.906-7.692 9.572-9.314-21.27 13.578zm15.306 8.273L33.29 3.482 14.305 21.953zm-22.447-.922a.582.582 0 0 1-.412-.995l4.08-4.082a.583.583 0 0 1 .825.825l-4.08 4.08a.58.58 0 0 1-.413.172zm0 9.327a.582.582 0 0 1-.412-.995l1.166-1.166a.582.582 0 1 1 .824.825l-1.166 1.165a.58.58 0 0 1-.412.171zm2.915-2.914a.582.582 0 0 1-.412-.996l3.498-3.498a.582.582 0 1 1 .824.825L4.42 32.403a.579.579 0 0 1-.412.172zm8.745 2.914a.581.581 0 0 1-.413-.995l.584-.583a.582.582 0 1 1 .824.825l-.583.582a.578.578 0 0 1-.412.171zm2.332-2.332a.582.582 0 0 1-.413-.995l2.915-2.915a.583.583 0 0 1 .825.824l-2.915 2.915a.577.577 0 0 1-.412.171z"/></g></g></svg>