<svg xmlns="http://www.w3.org/2000/svg" width="40" height="34" viewBox="0 0 40 34"><g><g><path fill="#126ecb" d="M39.994 20.054c0 4.64-3.77 8.414-8.405 8.414h-3.82a.853.853 0 0 1 0-1.707h3.82c3.694 0 6.699-3.009 6.699-6.707s-3.005-6.706-6.7-6.706c-.224 0-.452.011-.68.034a.854.854 0 0 1-.935-.91s.035-.487.035-.675c0-5.233-4.253-9.49-9.48-9.49-2.306 0-4.526.839-6.253 2.362a9.499 9.499 0 0 0-3.13 5.836.854.854 0 0 1-.924.735 7.847 7.847 0 0 0-.738-.038c-4.285 0-7.771 3.49-7.771 7.78 0 4.289 3.486 7.78 7.771 7.78h3.478a.853.853 0 0 1 0 1.706H9.483c-5.225 0-9.477-4.256-9.477-9.486 0-5.232 4.252-9.488 9.477-9.488l.107.001a11.21 11.21 0 0 1 3.557-6.106 11.147 11.147 0 0 1 7.38-2.79c6.117 0 11.102 4.94 11.185 11.042 4.578.067 8.281 3.815 8.282 8.413zM21.38 5.464a.853.853 0 0 1-.853.855c-2.717 0-5.043 2.033-5.41 4.728a.856.856 0 0 1-.96.73.854.854 0 0 1-.73-.96c.482-3.538 3.535-6.206 7.1-6.206.471 0 .853.382.853.854zm3.025 24.804l-3.102 2.774a1.405 1.405 0 0 1-1.876 0l-3.102-2.774a.854.854 0 0 1 1.136-1.274l2.051 1.835V20.326a.853.853 0 1 1 1.706 0V30.83l2.051-1.835a.852.852 0 1 1 1.136 1.274z"/></g></g></svg>