<svg xmlns="http://www.w3.org/2000/svg" width="42" height="30" viewBox="0 0 42 30"><g><g><path fill="#7b7f87" d="M33.597 22.981l-7.824-7.34a.701.701 0 0 1-.056-.06l-2.216 1.933c-.69.607-1.594.905-2.498.905-.91 0-1.813-.298-2.497-.898l-2.22-1.936a.701.701 0 0 1-.052.056L8.4 22.981a.678.678 0 0 1-.963-.026.682.682 0 0 1 .027-.963l7.793-7.303L1.424 2.62a2.023 2.023 0 0 0-.157.783v23.191c0 1.13.917 2.04 2.04 2.04h35.387c1.129 0 2.04-.91 2.04-2.04V3.405c0-.277-.056-.54-.156-.781L26.742 14.689l7.793 7.303a.683.683 0 0 1-.471 1.176.675.675 0 0 1-.467-.187zm-30.29 7.015a3.402 3.402 0 0 1-3.402-3.4V3.403A3.409 3.409 0 0 1 3.306.003h35.388a3.409 3.409 0 0 1 3.4 3.401v23.191a3.402 3.402 0 0 1-3.4 3.401zm0-28.631c-.35 0-.68.089-.968.245l17.057 14.883c.87.755 2.338.755 3.208 0L39.666 1.61a2.03 2.03 0 0 0-.972-.246z"/></g></g></svg>