<svg xmlns="http://www.w3.org/2000/svg" width="38" height="48" viewBox="0 0 38 48"><g><g><path fill="#7b7f87" d="M33.411 34.312a7.18 7.18 0 0 1 3.99 6.455v2.432c0 3.797-12.036 4.8-18.404 4.8C12.635 48 .6 46.997.6 43.2v-2.59a7.21 7.21 0 0 1 3.761-6.336l7.136-3.895a2.111 2.111 0 0 0 1.103-1.855v-2.648c-.536-.699-2.07-2.887-2.801-5.79a3.169 3.169 0 0 1-1.2-2.483v-3.204c0-.77.29-1.515.801-2.097V8.043c-.047-.438-.222-3.059 1.672-5.219C12.717.95 15.381 0 18.997 0c3.618 0 6.286.95 7.93 2.824 1.895 2.16 1.716 4.781 1.673 5.219V12.3c.511.582.8 1.328.8 2.097v3.204a3.172 3.172 0 0 1-1.862 2.89 18.27 18.27 0 0 1-2.364 4.641c-.2.28-.39.535-.574.762v2.703c0 .808.449 1.53 1.168 1.894zm2.388 6.455a5.581 5.581 0 0 0-3.106-5.025l-7.64-3.82a3.698 3.698 0 0 1-2.056-3.324v-3.301l.2-.227c.203-.225.434-.527.673-.863a16.789 16.789 0 0 0 2.265-4.57l.129-.395.397-.12a1.594 1.594 0 0 0 1.138-1.52v-3.204c0-.445-.192-.867-.535-1.175l-.267-.243.009-5.085c.004-.02.262-2.27-1.297-4.032-1.328-1.504-3.587-2.26-6.712-2.26-3.131 0-5.394.764-6.722 2.276-1.558 1.777-1.284 3.996-1.28 4.016l.002.105v4.98l-.26.24a1.572 1.572 0 0 0-.535 1.178v3.204c0 .539.273 1.039.737 1.339l.274.176.075.317c.746 3.257 2.707 5.628 2.726 5.651l.188.225v3.213c0 1.36-.744 2.61-1.938 3.262L5.126 35.68a5.614 5.614 0 0 0-2.924 4.93v2.589c0 1.086 5.929 3.2 16.795 3.2 10.873 0 16.802-2.114 16.802-3.2z"/></g></g></svg>