<svg xmlns="http://www.w3.org/2000/svg" width="20" height="20" viewBox="0 0 20 20"><g><g><path fill="#fff" d="M19.96 15.498c-.057-.172-.417-.422-1.08-.753-.18-.105-.435-.246-.766-.426-.333-.181-.633-.347-.903-.498-.27-.15-.524-.298-.76-.44-.038-.029-.157-.112-.356-.25a4.064 4.064 0 0 0-.504-.305.925.925 0 0 0-.405-.099c-.19 0-.426.134-.71.405-.284.27-.545.563-.781.88a8.506 8.506 0 0 1-.753.881c-.266.27-.484.405-.654.405a.96.96 0 0 1-.32-.07 3.02 3.02 0 0 1-.292-.12c-.066-.034-.18-.1-.34-.2a7.68 7.68 0 0 0-.27-.163c-1.298-.72-2.411-1.545-3.34-2.473-.928-.928-1.752-2.04-2.472-3.339-.01-.02-.064-.11-.163-.27a4.985 4.985 0 0 1-.2-.342 3.177 3.177 0 0 1-.12-.29.977.977 0 0 1-.071-.32c0-.17.135-.388.405-.654.27-.265.564-.517.88-.753.318-.237.611-.498.881-.78.271-.285.406-.522.406-.712a.921.921 0 0 0-.1-.404 3.912 3.912 0 0 0-.306-.505l-.248-.356a32.19 32.19 0 0 1-.44-.759c-.152-.27-.317-.571-.498-.903-.18-.331-.322-.587-.426-.767C4.922.456 4.672.095 4.501.038a.785.785 0 0 0-.298-.043c-.256 0-.59.048-1.002.143a5.573 5.573 0 0 0-.973.298c-.475.2-.976.776-1.507 1.733-.483.89-.724 1.772-.724 2.643 0 .256.016.505.049.746.033.242.093.515.178.818.085.303.154.528.206.674.052.147.149.41.291.789.143.38.228.61.256.696.332.929.724 1.757 1.18 2.487.747 1.212 1.768 2.465 3.062 3.758 1.292 1.293 2.545 2.314 3.758 3.062.729.455 1.558.849 2.486 1.18.086.028.318.113.697.255.378.143.641.24.788.292.147.052.372.12.675.207a5.41 5.41 0 0 0 1.563.227c.872 0 1.752-.242 2.643-.724.956-.531 1.535-1.034 1.733-1.507.105-.237.204-.561.299-.973.095-.413.142-.746.142-1.002a.789.789 0 0 0-.043-.3z"/></g></g></svg>