<svg xmlns="http://www.w3.org/2000/svg" width="14" height="29" viewBox="0 0 14 29"><g><g><path fill="#ffa800" d="M12.428 27.13a75.012 75.012 0 0 1-2.81 1.058c-.698.243-1.51.364-2.436.364-1.422 0-2.527-.348-3.315-1.039-.788-.694-1.183-1.575-1.183-2.64 0-.415.028-.839.088-1.273.06-.433.156-.922.286-1.467l1.467-5.193c.131-.496.241-.968.33-1.413.09-.444.134-.85.134-1.217 0-.663-.137-1.127-.41-1.388-.273-.26-.796-.391-1.57-.391-.379 0-.769.06-1.166.177-.4.118-.74.232-1.027.339l.393-1.602c.96-.39 1.88-.726 2.758-1.004.879-.28 1.709-.419 2.494-.419 1.412 0 2.5.342 3.265 1.023.765.683 1.147 1.569 1.147 2.658 0 .228-.024.624-.078 1.193a7.95 7.95 0 0 1-.294 1.565L9.04 21.633c-.12.415-.227.89-.321 1.425-.097.53-.142.937-.142 1.208 0 .687.153 1.156.46 1.405.308.249.841.374 1.597.374.356 0 .76-.064 1.209-.188.447-.123.774-.232.976-.327zm-.26-21.009c-.68.635-1.501.952-2.46.952-.963 0-1.785-.317-2.473-.952-.688-.634-1.032-1.402-1.032-2.303 0-.9.344-1.67 1.032-2.311.686-.64 1.51-.96 2.473-.96.959 0 1.78.321 2.46.96.683.64 1.022 1.412 1.022 2.311 0 .901-.34 1.67-1.023 2.303z"/></g></g></svg>