<svg xmlns="http://www.w3.org/2000/svg" width="30" height="27" viewBox="0 0 30 27"><g><g><path fill="#ffa800" d="M19.251 23.336l-.465 2.444a.99.99 0 0 1-.936.774H1.633a.99.99 0 0 1-.936-.774l-.465-2.444c-.19-.998.428-2.095 1.38-2.45l4.688-1.75 3.442 4.988 3.441-4.989 4.689 1.751c.952.355 1.57 1.452 1.38 2.45zm-4.55-12.222c0 1.365-.445 2.85-1.05 4.142.044-.313.159-.647.159-1.008 0-1.421-.367-2.702-.976-3.684-.243-.394-.434-.397-.76-.07-.47.47-1.426 1.084-2.365 1.084-.94 0-1.896-.615-2.365-1.085-.326-.326-.517-.323-.76.07-.609.983-.976 2.264-.976 3.685 0 .36.114.695.16 1.008-.606-1.292-1.051-2.777-1.051-4.142 0-3.412 2.235-5.055 4.992-5.055S14.7 7.702 14.7 11.114zm1.817 6.142a.569.569 0 0 1-.441-.928l3.11-3.828a.57.57 0 0 1 .441-.21h7.334a1.71 1.71 0 0 0 1.708-1.708v-7.59a1.71 1.71 0 0 0-1.708-1.709H12.539a1.71 1.71 0 0 0-1.708 1.708v.791a.569.569 0 0 1-1.138 0v-.79A2.85 2.85 0 0 1 12.539.144h14.423a2.85 2.85 0 0 1 2.846 2.846v7.591a2.85 2.85 0 0 1-2.846 2.847h-7.063l-2.939 3.616a.569.569 0 0 1-.442.21zM25.212 4.92H14.29a.38.38 0 1 1 0-.76h10.923a.38.38 0 0 1 0 .76zm.078 3.02h-6.927a.38.38 0 0 1 0-.759h6.927a.38.38 0 0 1 0 .76z"/></g></g></svg>