<svg xmlns="http://www.w3.org/2000/svg" width="36" height="20" viewBox="0 0 36 20"><g><g><path fill="#ffa800" d="M35.15 10.108l-3.786 1.825c-.642.394-1.694-.721-1.694-.721l.527-.202c.99 1.099 1.008-.132 1.055-.88-.433-5.757-3.499-7.853-3.499-7.853l3.755-2.24c4.471 2.838 3.642 10.071 3.642 10.071zM5.83 11.233l.527.202s-1.053 1.115-1.694.721L.877 10.331S.01 3.627 4.519.261L8.274 2.5s-3.066 2.096-3.499 7.852c.047.748.066 1.979 1.056.88zm23.997-.565c-.319.147-.757.352-1.24.576l-.033.022c-.03.021-.072.052-.123.091-.102.078-.238.188-.396.318-.093.076-.195.162-.3.251l.035.024.025.012c.433.2.685.62.685 1.048 0 .153-.031.306-.099.453a1.116 1.116 0 0 1-1.024.644 1.19 1.19 0 0 1-.493-.108l-5.078-2.668s-.397-.283-.537.027c-.134.294.107.402.107.402l4.192 2.334.019.01c.466.212.73.64.727 1.015a.794.794 0 0 1-.072.334.82.82 0 0 1-.343.37 1.107 1.107 0 0 1-.548.139c-.18 0-.37-.04-.556-.124 0 0-3.768-1.904-4.01-2.038-.241-.134-.483-.188-.563.027a.384.384 0 0 0 .162.461c.107.053 2.71 1.499 2.71 1.499l.006.003c.417.214.647.638.646 1.023a.888.888 0 0 1-.096.41.796.796 0 0 1-.35.341c-.154.08-.345.125-.55.125-.19 0-.388-.04-.575-.117L19.33 16.27s-.2-.066-.31.134c-.16.296.135.403.135.403l1.497.85c.404.184.63.554.627.87a.688.688 0 0 1-.352.595.94.94 0 0 1-.47.12c-.156 0-.321-.034-.482-.107l-.004-.002-1.944-.868-.302.673-.012.024c-.299.554-.842.899-1.418.902a1.333 1.333 0 0 1-1.174-.704 1.507 1.507 0 0 1-.16-.492c-.193.08-.398.128-.61.13a1.458 1.458 0 0 1-1.262-.73 1.722 1.722 0 0 1-.225-.697 1.555 1.555 0 0 1-.575.119 1.42 1.42 0 0 1-.526-.1 1.451 1.451 0 0 1-.709-.606 1.732 1.732 0 0 1-.243-.897c0-.074.013-.15.022-.223a1.318 1.318 0 0 1-.64.027 1.423 1.423 0 0 1-.872-.577 1.74 1.74 0 0 1-.314-1.012c0-.126.013-.254.039-.383l.002-.011.22-.926h.001c.02-.091.047-.179.078-.264-.842-.735-1.6-1.368-1.751-1.438l-1.765-.82C5.808 6.125 8.618 3.7 8.618 3.7s1.196.383 2.179.485c.347-.378.686-.763 1.01-1.084.227-.224.445-.418.677-.562.133-.08.272-.147.43-.18.101-.022.234-.042.406-.065.172-.022.38-.048.615-.074.47-.053 1.047-.111 1.648-.167 1.202-.113 2.493-.22 3.193-.261.201-.013.351-.02.453-.02.03 0 .055 0 .088.003.137.013.268.047.426.095.156.047.333.11.524.181.382.144.82.327 1.238.508.816.353 1.546.696 1.58.712l.027.012.099.042c.085.034.207.083.353.138.29.107.673.237 1.03.32.236.056.461.09.622.089h.05c.416-.018.886-.18 1.25-.35.366-.167.626-.338.646-.352h.001a.403.403 0 0 1 .488.029c.021.019.746.646 1.472 1.807a9.397 9.397 0 0 1 1.455 5.005v.052a.404.404 0 0 1-.233.363l-.518.241zM11.54 13.02a1 1 0 0 0-.176-.582.68.68 0 0 0-.417-.282.64.64 0 0 0-.127-.013.753.753 0 0 0-.503.21 1.086 1.086 0 0 0-.325.59l-.002.01-.218.914c-.016.08-.024.158-.024.234 0 .226.068.43.176.581a.676.676 0 0 0 .544.295c.171 0 .35-.072.503-.21.152-.139.275-.343.325-.589l.002-.01.218-.916c.017-.08.024-.157.024-.232zm2.402 1.148c.044-.13.07-.26.07-.385a.995.995 0 0 0-.137-.514.712.712 0 0 0-.347-.3.676.676 0 0 0-.254-.049c-.333-.004-.724.25-.899.694v.002l-.737 1.825.001-.001c-.06.15-.087.301-.087.445 0 .194.05.374.136.514.086.14.202.242.348.3a.676.676 0 0 0 .253.048c.265.004.566-.16.766-.45zm2.288.912l.001-.003a1.24 1.24 0 0 0 .102-.486c0-.194-.05-.373-.134-.515a.71.71 0 0 0-.625-.366c-.34-.004-.738.247-.926.69l-.017.041c-.008.02-.01.04-.018.06v.002l-.737 1.825c-.044.11-.1.212-.16.31l-.02.047-.001.003a1.24 1.24 0 0 0-.102.487c0 .194.05.373.133.514.085.143.2.247.346.31l-.146.34.146-.34c.09.039.183.056.28.056.277.004.592-.166.802-.47l.46-1.026zm1.57 1.676a.808.808 0 0 0-.092-.384.588.588 0 0 0-.522-.315c-.265-.003-.584.175-.762.507l-.135.3-.329.788v.004a2.068 2.068 0 0 1-.155.287 1.028 1.028 0 0 0-.124.479c0 .145.034.278.092.385a.594.594 0 0 0 .242.246l-.175.325.176-.325c.087.045.18.068.28.068.264.003.582-.174.762-.506l.604-1.35.012-.024c.086-.16.126-.33.126-.485zm11.964-6.947a8.615 8.615 0 0 0-1.292-4.325 8.477 8.477 0 0 0-1.14-1.474 6.695 6.695 0 0 1-.438.227c-.425.199-.989.41-1.592.44l-.086.001c-.26 0-.533-.046-.806-.11a8.293 8.293 0 0 1-.788-.23c-.487-.164-.858-.327-.865-.33l-.01-.005s-.141-.066-.37-.17a63.402 63.402 0 0 0-.89-.402c-.69-.305-1.513-.65-1.978-.79a1.505 1.505 0 0 0-.26-.063h-.021c-.115 0-.466.02-.918.053-.456.033-1.025.08-1.62.131-1.191.104-2.491.231-3.19.322a6.245 6.245 0 0 0-.42.063.589.589 0 0 0-.174.08c-.08.048-.176.12-.281.212-.21.183-.456.44-.718.726-.526.572-1.116 1.258-1.754 1.756a.133.133 0 0 0-.038.054.33.33 0 0 0-.022.125.687.687 0 0 0 .243.489c.174.156.455.291.91.292.191 0 .413-.025.666-.085.564-.133 1.16-.46 1.612-.765.453-.306.766-.586.794-.611l.002-.002a.405.405 0 0 1 .304-.104l2.634.213c.11.009 3.555 1.724 3.555 1.724l6.229 4.207c.099-.085.197-.169.288-.244.336-.282.598-.494.765-.61.048-.032.083-.057.146-.087l1.523-.708z"/></g></g></svg>