<svg xmlns="http://www.w3.org/2000/svg" width="24" height="24" viewBox="0 0 24 24"><g><g><path fill="#ffa800" d="M3.79 4.74H1.762c-.515 0-.935-.436-.935-.985 0-.54.42-.98.935-.98h2.023c.518 0 .934.44.934.98 0 .545-.416.985-.93.985zm.93 4.51c0 .545-.416.985-.934.985H1.763c-.515 0-.935-.44-.935-.984s.42-.985.935-.985h2.026c.515 0 .931.444.931.985zm0 5.495c0 .544-.416.985-.934.985H1.763c-.515 0-.935-.44-.935-.985 0-.543.42-.984.935-.984h2.026c.515 0 .931.44.931.984zm0 5.496c0 .544-.416.984-.934.984H1.763c-.515 0-.935-.44-.935-.984s.42-.985.935-.985h2.026c.515 0 .931.44.931.985zm18.452 2.698c0 .59-.48 1.073-1.074 1.073H3.868c-.594 0-1.074-.48-1.074-1.074V22h.992c.924 0 1.674-.79 1.674-1.76 0-.966-.75-1.755-1.674-1.755h-.992v-1.98h.992c.924 0 1.674-.79 1.674-1.76s-.75-1.755-1.674-1.755h-.992v-1.98h.992c.924 0 1.674-.79 1.674-1.76 0-.965-.75-1.756-1.674-1.756h-.992V5.515h.992c.924 0 1.674-.79 1.674-1.76C5.46 2.79 4.71 2 3.786 2h-.992v-.938c0-.593.48-1.073 1.073-1.073h18.231c.594 0 1.074.48 1.074 1.073zM11.48 8.483c.295.043 1.02.58 1.283.718.71.366 1.863-2.473 1.33-2.808-.42-.256-.793-.608-1.248-.797-.078-.031-.16-.031-.245-.049-1.859-.416-3.757 1.187-3.95 3.604a45.56 45.56 0 0 0-.138 2.773h-.004a.508.508 0 0 1 .004.075c0 .028 0 .049-.004.075h.004c.018.926.06 1.85.139 2.774.192 2.414 2.09 4.017 3.95 3.601.084-.014.166-.018.244-.046.455-.189.828-.54 1.248-.8.533-.334-.62-3.17-1.33-2.804-.263.135-.988.675-1.283.714-.26.036-.466-.309-.49-.629-.068-.839-.008-1.916-.004-2.807h.004v-.153h-.004c-.004-.892-.064-1.97.004-2.812.024-.32.227-.664.49-.63zm4.137 5.936a3.43 3.43 0 0 0 0-4.842l-.71.716a2.41 2.41 0 0 1 0 3.414zm1.267 1.265a5.22 5.22 0 0 0 0-7.368l-.712.711a4.204 4.204 0 0 1 0 5.946zm.514-7.884a5.942 5.942 0 0 1 0 8.4l.711.71a6.957 6.957 0 0 0 0-9.82z"/></g></g></svg>