<svg xmlns="http://www.w3.org/2000/svg" width="29" height="23" viewBox="0 0 29 23"><g><g><path fill="#ffa800" d="M24.663 13.41a.247.247 0 0 1 .018.104v8.38c0 .301-.111.564-.333.785-.22.22-.482.331-.785.331h-6.702v-6.703h-4.47v6.703H5.688a1.07 1.07 0 0 1-.785-.332 1.069 1.069 0 0 1-.332-.785v-8.379c0-.012.003-.029.009-.052a.208.208 0 0 0 .008-.052l10.037-8.276zm3.84-1.885a.506.506 0 0 1 .192.374.565.565 0 0 1-.122.41l-1.082 1.292a.597.597 0 0 1-.366.193h-.054a.535.535 0 0 1-.366-.123L14.625 3.6 2.546 13.67a.649.649 0 0 1-.42.123.595.595 0 0 1-.366-.193l-1.082-1.29a.57.57 0 0 1-.122-.412.505.505 0 0 1 .192-.374L13.299 1.068a2.04 2.04 0 0 1 1.327-.454c.512 0 .954.152 1.327.454L20.21 4.63V1.225c0-.163.053-.297.157-.402a.544.544 0 0 1 .402-.157h3.351c.163 0 .297.053.402.157a.543.543 0 0 1 .157.402v7.122z"/></g></g></svg>