<svg xmlns="http://www.w3.org/2000/svg" width="26" height="20" viewBox="0 0 26 20"><g><g><path fill="#ffa800" d="M25.796 3.595v4.393c0 .505-.385 1.07-.855 1.254 0 0-3.916 1.533-9.986 1.82v.646c5.532-.256 9.26-1.525 10.007-1.8v8.04c0 .99-.81 1.8-1.8 1.8H2.845c-.99 0-1.8-.81-1.8-1.8v-8.04c.75.275 4.478 1.544 10.007 1.8v-.645c-6.07-.288-9.986-1.821-9.986-1.821-.47-.185-.854-.749-.854-1.254V3.595a.92.92 0 0 1 .918-.918h2.74v-.343c0-.178.146-.323.323-.323H6.28c.177 0 .321.143.323.32.13-.02.26-.047.386-.091.445-.154.847-.355 1.296-.517l.249-.088-.045-.14c-.053-.161.022-.33.165-.375l.135-.038c1.205-.338 2.653-.53 4.215-.53 1.562 0 3.01.192 4.216.53l.135.038c.143.045.217.214.165.376l-.045.14.248.087c.449.162.851.363 1.296.517.127.044.256.07.386.091a.323.323 0 0 1 .323-.32h2.087c.178 0 .323.145.323.323v.343h2.74a.92.92 0 0 1 .919.918zM14.46 8.396a.81.81 0 0 0-.808-.807h-1.3a.81.81 0 0 0-.808.807v1.215l.019-.002h2.879l.018.002zm0 5.803v-1.687l-.018.001h-2.88l-.018-.001v1.687a.81.81 0 0 0 .808.81h1.3a.81.81 0 0 0 .808-.81zm.002-3.115h-.002v-.602a.352.352 0 0 0-.35-.334h-2.216a.352.352 0 0 0-.35.334v.602h-.002v.539c0 .193.159.35.352.35h.852v-1.028c0-.103.115-.186.256-.186.142 0 .256.083.256.186l-.004 1.028h.857a.352.352 0 0 0 .351-.35zm4.941-8.46a2.524 2.524 0 0 1-.48-.11c-.468-.162-.872-.364-1.3-.518l-.239-.085-.011.036c-.052.162-.21.26-.352.215l-.134-.037a4.573 4.573 0 0 0-.092-.025c-1.067-.285-2.38-.456-3.793-.455-1.413-.001-2.726.17-3.793.455l-.091.025-.135.037c-.14.044-.299-.053-.351-.215L8.62 1.91l-.238.085c-.428.154-.833.356-1.3.518a2.525 2.525 0 0 1-.48.11v.053h12.801z"/></g></g></svg>