<svg xmlns="http://www.w3.org/2000/svg" width="26" height="24" viewBox="0 0 26 24"><g><g><path fill="#ffa800" d="M5.385 8.48v14.715a.818.818 0 0 1-.817.817h-3.27a.818.818 0 0 1-.818-.817V8.48c0-.45.368-.817.818-.817h3.27c.45 0 .817.366.817.817zm19.031 3.702c.633 1.12.264 2.578-.817 3.27.633 1.12.263 2.578-.818 3.27.907 1.604-.298 3.656-2.136 3.655H7.02V9.297s3.943-3.57 5.212-4.808c.728-.71 1.198-1.656 1.387-2.65.074-.393.053-.806.261-1.16.182-.307.487-.537.833-.624.605-.152 1.355-.008 1.892.279 1.648.88 2.033 3.357 1.439 4.98l-.861 2.349s6.164-.023 6.296 0c2.179.369 2.802 3.325.937 4.519z"/></g></g></svg>