<svg xmlns="http://www.w3.org/2000/svg" width="24" height="24" viewBox="0 0 24 24"><g><g><path fill="#ffa800" d="M5.014 15.74a.792.792 0 1 1-.001 1.583.792.792 0 0 1 0-1.583zm10.985-7.48A.792.792 0 1 1 16 6.675.792.792 0 0 1 16 8.259zm7.998-5.983v21.72l-7.734-2.274-8.526 2.274-7.734-2.274V.003l7.734 2.274L16.263.002zm-5.694 15.045a3.06 3.06 0 0 0 3.056-3.057 3.06 3.06 0 0 0-3.056-3.057h-8.26a1.476 1.476 0 0 1-1.475-1.474c0-.813.662-1.475 1.475-1.475h3.719a2.377 2.377 0 0 0 2.237 1.582 2.376 2.376 0 0 0 2.373-2.373A2.375 2.375 0 0 0 16 5.096c-1.031 0-1.91.66-2.237 1.582h-3.72a3.06 3.06 0 0 0-3.056 3.056 3.06 3.06 0 0 0 3.057 3.057h8.26a1.476 1.476 0 0 1 0 2.949H7.25a2.377 2.377 0 0 0-2.237-1.582 2.376 2.376 0 0 0-2.373 2.373 2.376 2.376 0 0 0 2.373 2.373c1.031 0 1.91-.661 2.237-1.582z"/></g></g></svg>