<svg xmlns="http://www.w3.org/2000/svg" width="18" height="24" viewBox="0 0 18 24"><g><g><path fill="#ffa800" d="M6.695 14.91v1.607h4.567c.388 0 .703.315.703.703v3.011a.703.703 0 0 1-.703.703H6.695v2.309a.703.703 0 0 1-.703.703H2.98a.703.703 0 0 1-.703-.703v-2.309H.721a.703.703 0 0 1-.703-.703v-3.01c0-.39.315-.704.703-.704h1.556v-1.606H.721a.703.703 0 0 1-.703-.703v-3.011c0-.388.315-.703.703-.703h1.556V.657c0-.39.315-.703.703-.703h7.529c4.124 0 7.479 3.354 7.479 7.478a7.474 7.474 0 0 1-7.479 7.479zm0-4.416h3.814a3.065 3.065 0 0 0 3.061-3.062 3.065 3.065 0 0 0-3.061-3.061H6.695z"/></g></g></svg>