<svg xmlns="http://www.w3.org/2000/svg" width="32" height="23" viewBox="0 0 32 23"><g><g><path fill="#ffa800" d="M12.191 11.78c-.87.284-1.6.53-2.232.747l.644-1.93s.736.223 1.588.496zm8.23.2c-.199-.067-.393-.13-.606-.2v-.341c.7-.293 1.27-.525 1.27-.525zm-11.406.01l-.342.586.17.343c-.412.149-.81.278-1.1.39v-.147l.343-.586-.342-.587.635-.586zm-4.3 5.044c-2.261-.277-3.96-.727-3.96-.939 0-.953.744-3.665 1.27-4.069.38-.292 4.13-1.43 4.13-1.43l.991 2.972c-.674.285-.838.407-.917.468-.594.456-1.117 1.678-1.515 2.998zm26.536-.939c0 .212-1.699.661-3.959.938-.397-1.319-.92-2.54-1.512-2.996-.073-.055-.215-.162-.75-.396l.185-.185h2.542l-1.589-2.542s3.508 1.428 3.813 1.662c.526.405 1.27 2.566 1.27 3.52zm-17.79-3.91v-1.27l-.707-2.065s-.458.043-.722-.197c-.494-.45-.806-1.575-.476-2.18.23-.423.635-.338.635-.338V3.9c0-1.8 1.376-3.15 3.812-3.15 1.106 0 2.025.413 2.4 1.2 1.107 0 1.412.844 1.412 2.119v2.067s.405-.085.635.338c.33.605.018 1.73-.476 2.18-.264.24-.722.197-.722.197l-.708 2.064v1.271l-2.54 1.27zm11.543 2.859c.746.573 1.8 4.685 1.8 6.036 0 .45-5.4 1.27-10.8 1.27-5.401 0-10.801-.82-10.801-1.27 0-1.35 1.053-5.463 1.8-6.036.536-.414 5.85-2.144 5.85-2.144l1.88 7.862v-3.177l.952-1.588-.953-.953 1.271-1.271 1.27 1.27-.952.954.953 1.588v3.177l1.88-7.862s5.313 1.73 5.85 2.144zm-3.136-4.814L20.74 9.66c.029-.024.062-.042.09-.067.873-.796 1.374-2.56.736-3.728a1.986 1.986 0 0 0-.48-.584V3.437c.372-.817 1.1-1.417 2.541-1.417 2.859 0 2.932 2.346 2.932 4.105 0 0-.196 2.126.563 3.226l-1.735.88-1.473 2.964a50.277 50.277 0 0 0-.702-.258zm-11.583-.586l-1.906 1.27-1.906-1.27v-.636l-.317-1.26s-.205.03-.391-.138c-.35-.319-.526-1.113-.294-1.54.163-.299.367-.238.367-.238V4.253c0-1.27.821-2.233 2.541-2.233.781 0 1.416.158 1.681.714.381 0 .664.182.86.464V5.28a1.99 1.99 0 0 0-.48.584c-.403.74-.35 1.716-.035 2.536l-.12.608z"/></g></g></svg>