<svg xmlns="http://www.w3.org/2000/svg" width="16" height="14" viewBox="0 0 16 14"><g><g><path fill="#126ecb" d="M13.02 7.622c.12.048.18.135.18.261v2.869c0 .716-.254 1.328-.762 1.836a2.503 2.503 0 0 1-1.836.763H3.097a2.503 2.503 0 0 1-1.836-.763A2.503 2.503 0 0 1 .5 10.752V3.247c0-.716.254-1.327.762-1.836A2.502 2.502 0 0 1 3.097.649h7.505c.38 0 .73.075 1.055.225.09.043.145.112.163.208a.28.28 0 0 1-.081.262l-.442.442c-.06.06-.13.09-.208.09a.292.292 0 0 1-.08-.018 1.604 1.604 0 0 0-.407-.055H3.097a1.39 1.39 0 0 0-1.02.424 1.389 1.389 0 0 0-.423 1.02v7.505c0 .397.14.736.424 1.019.282.283.622.424 1.019.424h7.505a1.39 1.39 0 0 0 1.02-.424c.283-.283.424-.622.424-1.02v-2.29c0-.078.027-.145.08-.2l.578-.576c.06-.06.13-.09.207-.09.036 0 .073.009.109.027zm2.264-5.178a.706.706 0 0 1 .217.515c0 .198-.073.37-.217.514L7.94 10.816a.703.703 0 0 1-.514.215.705.705 0 0 1-.515-.215l-3.878-3.88a.703.703 0 0 1-.217-.513c0-.2.073-.37.217-.515l.992-.992a.703.703 0 0 1 .514-.217c.199 0 .37.072.514.217l2.372 2.372 5.837-5.836a.7.7 0 0 1 .514-.217c.199 0 .37.072.515.217z"/></g></g></svg>