<svg xmlns="http://www.w3.org/2000/svg" width="44" height="40" viewBox="0 0 44 40"><g><g><path fill="#1f2530" d="M39.357 8.751a4.007 4.007 0 0 1 4.002 4.003v5.56a4.009 4.009 0 0 1-1.685 3.261V36.01a4.007 4.007 0 0 1-4.002 4.002h-3.574a.632.632 0 0 1 0-1.264h3.574a2.741 2.741 0 0 0 2.738-2.738V22.175a4.727 4.727 0 0 1-.283.067l-14.799 2.742v6.636c0 .277-.18.521-.444.603l-2.696.843a.641.641 0 0 1-.376 0l-2.697-.843a.631.631 0 0 1-.443-.603v-6.636l-14.793-2.74a4.591 4.591 0 0 1-.29-.07V36.01a2.741 2.741 0 0 0 2.739 2.738h24.814a.632.632 0 1 1 0 1.264H6.328a4.007 4.007 0 0 1-4.003-4.002V21.574a4.007 4.007 0 0 1-1.685-3.26v-5.56A4.007 4.007 0 0 1 4.643 8.75h1.27a.632.632 0 1 1 0 1.264h-1.27a2.742 2.742 0 0 0-2.739 2.739v5.56c0 1.306.93 2.436 2.212 2.688l15.246 2.825h5.276L39.89 21a2.743 2.743 0 0 0 2.204-2.686v-5.561a2.742 2.742 0 0 0-2.738-2.74H8.845a.632.632 0 1 1 0-1.263h2.412V6.856c0-.35.283-.632.632-.632h.548v-.885c0-2.95 2.4-5.35 5.35-5.35h8.426c2.95 0 5.35 2.4 5.35 5.35v.885h.548c.349 0 .632.283.632.632V8.75zM13.7 6.224h1.433v-.885a2.657 2.657 0 0 1 2.654-2.654h4.086a.632.632 0 0 1 0 1.264h-4.086c-.766 0-1.39.623-1.39 1.39v.885h.547c.35 0 .632.283.632.632V8.75h8.847V6.856c0-.35.283-.632.632-.632h.548v-.885c0-.767-.624-1.39-1.39-1.39h-1.401a.632.632 0 0 1 0-1.264h1.4a2.658 2.658 0 0 1 2.655 2.654v.885H30.3v-.885a4.091 4.091 0 0 0-4.086-4.087h-8.426A4.09 4.09 0 0 0 13.7 5.34zm2.613 2.527V7.487H12.52V8.75zm15.166 0V7.487h-3.792V8.75zM19.936 27.534h4.128V25.09h-4.128zm4.128 1.264h-4.128v2.358L22 31.8l2.064-.645z"/></g></g></svg>