<svg xmlns="http://www.w3.org/2000/svg" width="96" height="70" viewBox="0 0 96 70"><g><g><path fill="#b4bcca" d="M85.032 33.386a1.396 1.396 0 0 1-1.871.623c-2.206-1.102-6.759-1.344-8.327-1.344a1.395 1.395 0 1 1 0-2.79c.257 0 6.334.018 9.575 1.638.689.345.968 1.183.623 1.872zm10.59 23.637v11.542a1.395 1.395 0 0 1-2.79 0V57.023a3.093 3.093 0 0 0-2.234-2.962l-5.763-1.646a3.301 3.301 0 0 1-.593-.236l-3.538 3.538v12.848a1.395 1.395 0 0 1-2.79 0V55.717l-3.562-3.563c-.476.234-.95.37-1.298.47l-.345.098a7.376 7.376 0 0 1 2.063 5.105v10.738a1.395 1.395 0 0 1-2.79 0V57.827a4.586 4.586 0 0 0-3.01-4.297l-9.05-3.291-3.767 5.651a2.877 2.877 0 0 1-2.406 1.286c-.762 0-1.492-.3-2.038-.846l-2.298-2.298v14.532a1.395 1.395 0 0 1-2.79 0V54.032l-2.3 2.298a2.875 2.875 0 0 1-2.325.832 2.877 2.877 0 0 1-2.118-1.272l-3.767-5.651-9.05 3.29a4.586 4.586 0 0 0-3.01 4.297v10.738a1.395 1.395 0 1 1-2.79 0V57.826c0-1.407.406-2.75 1.121-3.895l-1.52-.76-1.621 1.54a5.854 5.854 0 0 1-4.044 1.617 5.854 5.854 0 0 1-4.044-1.617l-1.622-1.54-4.662 2.33a3.064 3.064 0 0 0-1.703 2.756v10.307a1.395 1.395 0 0 1-2.79 0V58.257a5.841 5.841 0 0 1 3.245-5.252l3.744-1.871c-4.02-1.75-5.29-4.2-5.35-4.323a1.394 1.394 0 0 1 0-1.247c1.005-2.013 1.127-5.7 1.225-8.662.033-.986.064-1.918.123-2.748.475-6.692 5.563-11.738 11.834-11.738 6.27 0 11.358 5.046 11.834 11.738.059.83.09 1.762.122 2.748.098 2.963.22 6.65 1.225 8.662.197.392.197.855 0 1.247-.06.122-1.332 2.579-5.344 4.326l1.348.673a7.313 7.313 0 0 1 1.725-.903l8.584-3.122c-.03-.383.1-.773.38-1.068l2.599-2.73v-4.692c-3.648-3.098-5.967-7.796-5.967-13.011v-3.15a16.124 16.124 0 0 1-1.492-6.782V13.37c0-7.35 5.98-13.33 13.33-13.33h20.884c.77 0 1.395.625 1.395 1.396v14.917c0 2.348-.502 4.627-1.492 6.782v3.66c0 4.492-1.88 8.831-5.159 11.904a16.92 16.92 0 0 1-.808.705v4.584l2.6 2.73c.28.295.409.684.38 1.068l8.133 2.958 2.811-.804c1.152-.329 1.152-.458 1.152-.768v-2.016a10.887 10.887 0 0 1-4.476-8.802v-2.279l-.714-1.429a7.397 7.397 0 0 1-.777-3.292v-.083c0-4.882 3.972-8.854 8.854-8.854h13.426c.77 0 1.395.624 1.395 1.395V31a8.904 8.904 0 0 1-.935 3.96l-.557 1.113v2.655c0 2.822-1.116 5.459-3.141 7.425-.418.405-.866.769-1.334 1.094v1.923c0 .259.173.49.422.56l5.762 1.646a5.896 5.896 0 0 1 4.258 5.646zM9.328 47.24a10.407 10.407 0 0 1-3.682-4.543c-.167 1.204-.414 2.345-.795 3.34.559.684 1.868 1.936 4.477 2.875zm9.29 4.216c-.219-.411-.34-.876-.34-1.364l.001-1.485a10.383 10.383 0 0 1-6.16-.001v1.487c0 .487-.12.951-.34 1.362l1.298 1.233a3.078 3.078 0 0 0 4.244 0zm4.044-11.555c-2.257-4.97-8.06-5.645-9.864-5.733l-2.095 2.172a1.395 1.395 0 1 1-2.009-1.937l2.517-2.61c.254-.264.6-.417.966-.427.102-.002 2.508-.058 5.307.841 3.029.973 5.373 2.697 6.891 5.036l-.008-.25a73.668 73.668 0 0 0-.117-2.641c-.178-2.508-1.18-4.817-2.82-6.505a8.624 8.624 0 0 0-6.231-2.642 8.623 8.623 0 0 0-6.23 2.642c-1.64 1.688-2.642 3.997-2.82 6.505a72.245 72.245 0 0 0-.117 2.642l-.012.36a1.395 1.395 0 0 1 1.624 1.375c0 4.165 3.39 7.554 7.555 7.554a7.537 7.537 0 0 0 7.463-6.382zm2.885 6.137c-.38-.993-.627-2.132-.794-3.333a10.321 10.321 0 0 1-3.684 4.548v1.664c2.607-.939 3.922-2.202 4.478-2.88zm21.568-5.751c3.305.214 6.47-.74 9.053-2.7l.024-.018c.37-.282.727-.585 1.071-.907a13.395 13.395 0 0 0 4.277-9.868v-3.973c0-.21.047-.417.139-.606a13.385 13.385 0 0 0 1.353-5.864V2.83h-19.49c-5.81 0-10.539 4.728-10.539 10.539v2.983c0 2.032.456 4.004 1.353 5.864.092.189.14.396.14.606v3.461c0 7.395 5.542 13.547 12.619 14.005zm-1.273 10.577l-6.583-4.5-1.396 1.468 4.34 6.509a.089.089 0 0 0 .07.042.087.087 0 0 0 .078-.027zm9.73-7.057V41.26a16.16 16.16 0 0 1-7.54 1.849c-.365 0-.73-.012-1.098-.036a15.705 15.705 0 0 1-6.472-1.868v2.604l7.556 5.165zm2.6 4.026l-1.396-1.468-6.583 4.5 3.491 3.491c.01.01.033.033.078.028a.089.089 0 0 0 .071-.043zm24.318 2.15a3.336 3.336 0 0 1-.1-.813v-.562a10.349 10.349 0 0 1-3.398.46 9.8 9.8 0 0 1-2.763-.487v.589c0 .302-.03.577-.086.828l3.166 3.166zm4.375-11.256v-2.983c0-.216.05-.43.147-.624l.704-1.408c.42-.838.64-1.776.64-2.712v-5.795h-12.03a6.07 6.07 0 0 0-6.064 6.064v.083c0 .706.167 1.413.483 2.045l.862 1.723c.097.194.147.408.147.624v2.608c0 4.25 3.284 7.807 7.322 7.928a7.5 7.5 0 0 0 5.494-2.13 7.494 7.494 0 0 0 2.295-5.423zm2.79 20.886v8.95a1.395 1.395 0 0 1-2.79 0v-8.95a1.395 1.395 0 1 1 2.79 0zm-80.52 1.843v7.107a1.395 1.395 0 0 1-2.79 0v-7.107a1.395 1.395 0 0 1 2.79 0zM59.446 18.83a1.394 1.394 0 0 1-1.973 0c-1.864-1.864-5.015-2.956-9.366-3.245-3.697-.247-7.265.171-9.064.442-.041.007-.073.047-.073.095v3.214a1.395 1.395 0 0 1-2.79 0v-3.214c0-1.44 1.029-2.64 2.447-2.854 4.502-.678 15.543-1.687 20.82 3.59a1.395 1.395 0 0 1 0 1.972zM33.003 62.597v5.967a1.395 1.395 0 1 1-2.79 0v-5.967a1.395 1.395 0 0 1 2.79 0zm32.82 0v5.967a1.395 1.395 0 1 1-2.791 0v-5.967a1.395 1.395 0 0 1 2.79 0z"/><path fill="#126ecb" d="M85.032 33.386a1.396 1.396 0 0 1-1.871.623c-2.206-1.102-6.759-1.344-8.327-1.344a1.395 1.395 0 1 1 0-2.79c.257 0 6.334.018 9.575 1.638.689.345.968 1.183.623 1.872zm10.59 23.637v11.542a1.395 1.395 0 0 1-2.79 0V57.023a3.093 3.093 0 0 0-2.234-2.962l-5.763-1.646a3.301 3.301 0 0 1-.593-.236l-3.538 3.538v12.848a1.395 1.395 0 0 1-2.79 0V55.717l-3.562-3.563c-.476.234-.95.37-1.298.47l-.345.098a7.376 7.376 0 0 1 2.063 5.105v10.738a1.395 1.395 0 0 1-2.79 0V57.827a4.586 4.586 0 0 0-3.01-4.297l-9.05-3.291-3.767 5.651a2.877 2.877 0 0 1-2.406 1.286c-.762 0-1.492-.3-2.038-.846l-2.298-2.298v14.532a1.395 1.395 0 0 1-2.79 0V54.032l-2.3 2.298a2.875 2.875 0 0 1-2.325.832 2.877 2.877 0 0 1-2.118-1.272l-3.767-5.651-9.05 3.29a4.586 4.586 0 0 0-3.01 4.297v10.738a1.395 1.395 0 1 1-2.79 0V57.826c0-1.407.406-2.75 1.121-3.895l-1.52-.76-1.621 1.54a5.854 5.854 0 0 1-4.044 1.617 5.854 5.854 0 0 1-4.044-1.617l-1.622-1.54-4.662 2.33a3.064 3.064 0 0 0-1.703 2.756v10.307a1.395 1.395 0 0 1-2.79 0V58.257a5.841 5.841 0 0 1 3.245-5.252l3.744-1.871c-4.02-1.75-5.29-4.2-5.35-4.323a1.394 1.394 0 0 1 0-1.247c1.005-2.013 1.127-5.7 1.225-8.662.033-.986.064-1.918.123-2.748.475-6.692 5.563-11.738 11.834-11.738 6.27 0 11.358 5.046 11.834 11.738.059.83.09 1.762.122 2.748.098 2.963.22 6.65 1.225 8.662.197.392.197.855 0 1.247-.06.122-1.332 2.579-5.344 4.326l1.348.673a7.313 7.313 0 0 1 1.725-.903l8.584-3.122c-.03-.383.1-.773.38-1.068l2.599-2.73v-4.692c-3.648-3.098-5.967-7.796-5.967-13.011v-3.15a16.124 16.124 0 0 1-1.492-6.782V13.37c0-7.35 5.98-13.33 13.33-13.33h20.884c.77 0 1.395.625 1.395 1.396v14.917c0 2.348-.502 4.627-1.492 6.782v3.66c0 4.492-1.88 8.831-5.159 11.904a16.92 16.92 0 0 1-.808.705v4.584l2.6 2.73c.28.295.409.684.38 1.068l8.133 2.958 2.811-.804c1.152-.329 1.152-.458 1.152-.768v-2.016a10.887 10.887 0 0 1-4.476-8.802v-2.279l-.714-1.429a7.397 7.397 0 0 1-.777-3.292v-.083c0-4.882 3.972-8.854 8.854-8.854h13.426c.77 0 1.395.624 1.395 1.395V31a8.904 8.904 0 0 1-.935 3.96l-.557 1.113v2.655c0 2.822-1.116 5.459-3.141 7.425-.418.405-.866.769-1.334 1.094v1.923c0 .259.173.49.422.56l5.762 1.646a5.896 5.896 0 0 1 4.258 5.646zM9.328 47.24a10.407 10.407 0 0 1-3.682-4.543c-.167 1.204-.414 2.345-.795 3.34.559.684 1.868 1.936 4.477 2.875zm9.29 4.216c-.219-.411-.34-.876-.34-1.364l.001-1.485a10.383 10.383 0 0 1-6.16-.001v1.487c0 .487-.12.951-.34 1.362l1.298 1.233a3.078 3.078 0 0 0 4.244 0zm4.044-11.555c-2.257-4.97-8.06-5.645-9.864-5.733l-2.095 2.172a1.395 1.395 0 1 1-2.009-1.937l2.517-2.61c.254-.264.6-.417.966-.427.102-.002 2.508-.058 5.307.841 3.029.973 5.373 2.697 6.891 5.036l-.008-.25a73.668 73.668 0 0 0-.117-2.641c-.178-2.508-1.18-4.817-2.82-6.505a8.624 8.624 0 0 0-6.231-2.642 8.623 8.623 0 0 0-6.23 2.642c-1.64 1.688-2.642 3.997-2.82 6.505a72.245 72.245 0 0 0-.117 2.642l-.012.36a1.395 1.395 0 0 1 1.624 1.375c0 4.165 3.39 7.554 7.555 7.554a7.537 7.537 0 0 0 7.463-6.382zm2.885 6.137c-.38-.993-.627-2.132-.794-3.333a10.321 10.321 0 0 1-3.684 4.548v1.664c2.607-.939 3.922-2.202 4.478-2.88zm21.568-5.751c3.305.214 6.47-.74 9.053-2.7l.024-.018c.37-.282.727-.585 1.071-.907a13.395 13.395 0 0 0 4.277-9.868v-3.973c0-.21.047-.417.139-.606a13.385 13.385 0 0 0 1.353-5.864V2.83h-19.49c-5.81 0-10.539 4.728-10.539 10.539v2.983c0 2.032.456 4.004 1.353 5.864.092.189.14.396.14.606v3.461c0 7.395 5.542 13.547 12.619 14.005zm-1.273 10.577l-6.583-4.5-1.396 1.468 4.34 6.509a.089.089 0 0 0 .07.042.087.087 0 0 0 .078-.027zm9.73-7.057V41.26a16.16 16.16 0 0 1-7.54 1.849c-.365 0-.73-.012-1.098-.036a15.705 15.705 0 0 1-6.472-1.868v2.604l7.556 5.165zm2.6 4.026l-1.396-1.468-6.583 4.5 3.491 3.491c.01.01.033.033.078.028a.089.089 0 0 0 .071-.043zm24.318 2.15a3.336 3.336 0 0 1-.1-.813v-.562a10.349 10.349 0 0 1-3.398.46 9.8 9.8 0 0 1-2.763-.487v.589c0 .302-.03.577-.086.828l3.166 3.166zm4.375-11.256v-2.983c0-.216.05-.43.147-.624l.704-1.408c.42-.838.64-1.776.64-2.712v-5.795h-12.03a6.07 6.07 0 0 0-6.064 6.064v.083c0 .706.167 1.413.483 2.045l.862 1.723c.097.194.147.408.147.624v2.608c0 4.25 3.284 7.807 7.322 7.928a7.5 7.5 0 0 0 5.494-2.13 7.494 7.494 0 0 0 2.295-5.423zm2.79 20.886v8.95a1.395 1.395 0 0 1-2.79 0v-8.95a1.395 1.395 0 1 1 2.79 0zm-80.52 1.843v7.107a1.395 1.395 0 0 1-2.79 0v-7.107a1.395 1.395 0 0 1 2.79 0zM59.446 18.83a1.394 1.394 0 0 1-1.973 0c-1.864-1.864-5.015-2.956-9.366-3.245-3.697-.247-7.265.171-9.064.442-.041.007-.073.047-.073.095v3.214a1.395 1.395 0 0 1-2.79 0v-3.214c0-1.44 1.029-2.64 2.447-2.854 4.502-.678 15.543-1.687 20.82 3.59a1.395 1.395 0 0 1 0 1.972zM33.003 62.597v5.967a1.395 1.395 0 1 1-2.79 0v-5.967a1.395 1.395 0 0 1 2.79 0zm32.82 0v5.967a1.395 1.395 0 1 1-2.791 0v-5.967a1.395 1.395 0 0 1 2.79 0z"/></g></g></svg>