<svg xmlns="http://www.w3.org/2000/svg" width="61" height="70" viewBox="0 0 61 70"><g><g><path fill="#b4bcca" d="M49.835 52.257a17.88 17.88 0 0 1 11.153 16.607v1.13H.012v-1.13a17.882 17.882 0 0 1 11.153-16.608l11.584-4.738a3.372 3.372 0 0 0 2.105-3.134v-.81a20.891 20.891 0 0 1-7.632-9.703h-.272a5.651 5.651 0 0 1-5.646-5.645v-9.03c0-1.646.22-3.27.63-4.846A17.313 17.313 0 0 1 7.93 5.836L7.71 4.52h4.003c-.259-1.089-.41-2.22-.41-3.386V.006H30.5c10.585 0 19.196 8.609 19.196 19.19v9.03a5.651 5.651 0 0 1-5.646 5.645h-.272a20.894 20.894 0 0 1-7.632 9.703v.81c0 1.383.826 2.613 2.105 3.136zm-7.881-.783l-3.248-1.328c-1.736 4.465-6.945 15.315-7.189 15.82l-.85 1.77h.62l5.552-3.699-2.422-3.632 9.347-3.504zm-15.37 8.93l-2.423 3.633 5.551 3.699h.62l-.85-1.77c-.244-.506-5.456-11.373-7.188-15.82l-3.248 1.328-1.81 5.427zm-.605-7.343c1.467 3.307 3.37 7.363 4.521 9.793 1.152-2.43 3.055-6.483 4.523-9.793zm18.539-21.496c1.645-.23 2.92-1.632 2.92-3.339 0-1.469-.948-2.71-2.259-3.178v1.317c0 1.786-.234 3.528-.661 5.2zM10.438 6.78A15.035 15.035 0 0 0 25.04 18.067h14.492c2.762 0 5.058 1.996 5.543 4.62a5.584 5.584 0 0 1 2.362 1.054v-4.545c0-9.336-7.599-16.933-16.938-16.933H13.613c.572 6.321 5.9 11.289 12.37 11.289h7.904v2.257h-7.904c-6.094 0-11.33-3.733-13.546-9.03zm3.398 9.435a16.956 16.956 0 0 0-.274 2.982v4.543a5.62 5.62 0 0 1 2.259-1.043V17.69a17.302 17.302 0 0 1-1.985-1.476zm-.274 12.012c0 1.707 1.275 3.11 2.92 3.34a20.955 20.955 0 0 1-.661-5.2v-1.318c-1.311.468-2.259 1.709-2.259 3.178zm4.517-1.86A18.654 18.654 0 0 0 30.5 43.964a18.656 18.656 0 0 0 12.421-17.6v-2.654a3.39 3.39 0 0 0-3.388-3.386H25.041a17.39 17.39 0 0 1-6.962-1.444zm8.993 18.563a5.609 5.609 0 0 1-2.711 4.304c.172.45.387.979.638 1.572H36c.25-.593.464-1.12.637-1.572a5.606 5.606 0 0 1-2.71-4.303c-.975.508-2 .943-3.07 1.3l-.357.119-.358-.12a20.968 20.968 0 0 1-3.07-1.3zM12.02 54.347a15.624 15.624 0 0 0-9.71 13.389h8.994v-6.773h2.258v6.773h12.08l-4.611-3.074 2.094-3.142-8.72-3.269 1.884-5.649zM58.69 67.736a15.625 15.625 0 0 0-9.71-13.389l-4.27-1.745 1.884 5.65-8.72 3.268 2.095 3.142-4.612 3.074h12.08v-6.773h2.258v6.773zM37.275 25.969a1.13 1.13 0 1 1 0-2.259 1.13 1.13 0 0 1 0 2.259zm-13.55 0a1.13 1.13 0 1 1 0-2.259 1.13 1.13 0 0 1 0 2.259zm11.292 9.03a4.521 4.521 0 0 1-4.517 4.516A4.522 4.522 0 0 1 25.983 35h2.259a2.26 2.26 0 0 0 2.258 2.258A2.26 2.26 0 0 0 32.758 35z"/><path fill="#126ecb" d="M49.835 52.257a17.88 17.88 0 0 1 11.153 16.607v1.13H.012v-1.13a17.882 17.882 0 0 1 11.153-16.608l11.584-4.738a3.372 3.372 0 0 0 2.105-3.134v-.81a20.891 20.891 0 0 1-7.632-9.703h-.272a5.651 5.651 0 0 1-5.646-5.645v-9.03c0-1.646.22-3.27.63-4.846A17.313 17.313 0 0 1 7.93 5.836L7.71 4.52h4.003c-.259-1.089-.41-2.22-.41-3.386V.006H30.5c10.585 0 19.196 8.609 19.196 19.19v9.03a5.651 5.651 0 0 1-5.646 5.645h-.272a20.894 20.894 0 0 1-7.632 9.703v.81c0 1.383.826 2.613 2.105 3.136zm-7.881-.783l-3.248-1.328c-1.736 4.465-6.945 15.315-7.189 15.82l-.85 1.77h.62l5.552-3.699-2.422-3.632 9.347-3.504zm-15.37 8.93l-2.423 3.633 5.551 3.699h.62l-.85-1.77c-.244-.506-5.456-11.373-7.188-15.82l-3.248 1.328-1.81 5.427zm-.605-7.343c1.467 3.307 3.37 7.363 4.521 9.793 1.152-2.43 3.055-6.483 4.523-9.793zm18.539-21.496c1.645-.23 2.92-1.632 2.92-3.339 0-1.469-.948-2.71-2.259-3.178v1.317c0 1.786-.234 3.528-.661 5.2zM10.438 6.78A15.035 15.035 0 0 0 25.04 18.067h14.492c2.762 0 5.058 1.996 5.543 4.62a5.584 5.584 0 0 1 2.362 1.054v-4.545c0-9.336-7.599-16.933-16.938-16.933H13.613c.572 6.321 5.9 11.289 12.37 11.289h7.904v2.257h-7.904c-6.094 0-11.33-3.733-13.546-9.03zm3.398 9.435a16.956 16.956 0 0 0-.274 2.982v4.543a5.62 5.62 0 0 1 2.259-1.043V17.69a17.302 17.302 0 0 1-1.985-1.476zm-.274 12.012c0 1.707 1.275 3.11 2.92 3.34a20.955 20.955 0 0 1-.661-5.2v-1.318c-1.311.468-2.259 1.709-2.259 3.178zm4.517-1.86A18.654 18.654 0 0 0 30.5 43.964a18.656 18.656 0 0 0 12.421-17.6v-2.654a3.39 3.39 0 0 0-3.388-3.386H25.041a17.39 17.39 0 0 1-6.962-1.444zm8.993 18.563a5.609 5.609 0 0 1-2.711 4.304c.172.45.387.979.638 1.572H36c.25-.593.464-1.12.637-1.572a5.606 5.606 0 0 1-2.71-4.303c-.975.508-2 .943-3.07 1.3l-.357.119-.358-.12a20.968 20.968 0 0 1-3.07-1.3zM12.02 54.347a15.624 15.624 0 0 0-9.71 13.389h8.994v-6.773h2.258v6.773h12.08l-4.611-3.074 2.094-3.142-8.72-3.269 1.884-5.649zM58.69 67.736a15.625 15.625 0 0 0-9.71-13.389l-4.27-1.745 1.884 5.65-8.72 3.268 2.095 3.142-4.612 3.074h12.08v-6.773h2.258v6.773zM37.275 25.969a1.13 1.13 0 1 1 0-2.259 1.13 1.13 0 0 1 0 2.259zm-13.55 0a1.13 1.13 0 1 1 0-2.259 1.13 1.13 0 0 1 0 2.259zm11.292 9.03a4.521 4.521 0 0 1-4.517 4.516A4.522 4.522 0 0 1 25.983 35h2.259a2.26 2.26 0 0 0 2.258 2.258A2.26 2.26 0 0 0 32.758 35z"/></g></g></svg>