<svg xmlns="http://www.w3.org/2000/svg" width="70" height="70" viewBox="0 0 70 70"><g><g><path fill="#b4bcca" d="M65.347 9.321a4.67 4.67 0 0 1 4.669 4.67v39.683a4.67 4.67 0 0 1-4.67 4.67H42.406l2.8 9.337h2.634v2.334H22.16v-2.334h2.633l2.801-9.337H4.653a4.67 4.67 0 0 1-4.669-4.67V13.99a4.67 4.67 0 0 1 4.669-4.669v2.335a2.334 2.334 0 0 0-2.334 2.334v35.016H67.68V13.99a2.334 2.334 0 0 0-2.334-2.334zm-25.38 49.023h-9.935l-2.8 9.337h15.537zm27.714-7.004H2.32v2.334a2.334 2.334 0 0 0 2.334 2.335h60.694a2.334 2.334 0 0 0 2.334-2.335zm-56.025-4.669a4.669 4.669 0 0 1-4.669-4.668V4.653a4.67 4.67 0 0 1 4.67-4.669h46.687a4.67 4.67 0 0 1 4.668 4.669v37.35a4.669 4.669 0 0 1-4.668 4.668zm-2.334-4.668a2.334 2.334 0 0 0 2.334 2.334h46.688a2.334 2.334 0 0 0 2.334-2.334V4.653a2.334 2.334 0 0 0-2.334-2.335H11.656a2.334 2.334 0 0 0-2.334 2.335zm2.334-32.682h46.688v2.335H11.656zm0 5.837h10.505v2.334H11.656zm0 4.668h8.17v2.334h-8.17zm0 4.669h7.003v2.334h-7.003zm0 4.669h7.003v2.334h-7.003zm0 4.669h7.003v2.334h-7.003zm0 4.668h10.505v2.334H11.656zM47.84 15.158h10.505v2.334H47.839zm2.334 4.668h8.17v2.334h-8.17zm1.167 4.669h7.004v2.334H51.34zm0 4.669h7.004v2.334H51.34zm0 4.669h7.004v2.334H51.34zM47.84 38.5h10.505v2.334H47.839zM11.656 4.653h2.335v2.334h-2.335zm4.669 0h2.334v2.334h-2.334zm4.669 0h2.334v2.334h-2.334zM46.555 34.6a1.166 1.166 0 0 1 0 1.649l-3.302 3.303a1.167 1.167 0 0 1-1.65 0l-2.083-2.083c-.332.159-.672.3-1.019.423v2.943c0 .646-.522 1.168-1.167 1.168h-4.669a1.167 1.167 0 0 1-1.167-1.168v-2.942a11.006 11.006 0 0 1-1.019-.422l-2.082 2.08a1.167 1.167 0 0 1-1.65 0l-3.302-3.302a1.166 1.166 0 0 1 0-1.65l2.082-2.082a10.966 10.966 0 0 1-.422-1.019H22.16a1.167 1.167 0 0 1-1.167-1.167v-4.669c0-.645.522-1.167 1.167-1.167h2.943c.123-.347.264-.686.422-1.02l-2.081-2.081a1.166 1.166 0 0 1 0-1.65l3.302-3.303a1.167 1.167 0 0 1 1.65 0l2.082 2.082a11 11 0 0 1 1.02-.422v-2.943c0-.646.522-1.168 1.166-1.168h4.67c.644 0 1.166.522 1.166 1.168V18.1c.347.123.687.264 1.02.421l2.082-2.08a1.167 1.167 0 0 1 1.65 0l3.302 3.302a1.167 1.167 0 0 1 0 1.65l-2.082 2.082c.158.333.299.672.422 1.019h2.944c.645 0 1.167.522 1.167 1.167v4.669c0 .645-.522 1.167-1.167 1.167h-2.944c-.123.346-.264.686-.422 1.019zm-2.476.828l-1.866-1.867a1.167 1.167 0 0 1-.18-1.42 8.16 8.16 0 0 0 .869-2.101 1.167 1.167 0 0 1 1.13-.876h2.64V26.83h-2.638c-.532 0-.997-.36-1.13-.876a8.168 8.168 0 0 0-.87-2.1 1.17 1.17 0 0 1 .18-1.42l1.868-1.867-1.65-1.65-1.868 1.867a1.167 1.167 0 0 1-1.42.18 8.153 8.153 0 0 0-2.1-.87 1.167 1.167 0 0 1-.876-1.129v-2.64h-2.335v2.639c0 .532-.36.997-.875 1.129a8.161 8.161 0 0 0-2.1.87 1.169 1.169 0 0 1-1.42-.18l-1.868-1.867-1.65 1.65 1.867 1.868c.378.376.451.96.18 1.419a8.164 8.164 0 0 0-.869 2.1 1.167 1.167 0 0 1-1.13.876h-2.64v2.334h2.64c.531 0 .996.36 1.129.875.19.738.483 1.445.87 2.1.27.46.197 1.043-.18 1.42l-1.868 1.868 1.65 1.65 1.868-1.867c.377-.377.96-.45 1.42-.18a8.18 8.18 0 0 0 2.1.87c.515.132.876.597.876 1.13v2.64h2.332V37.02c0-.533.36-.997.875-1.13a8.2 8.2 0 0 0 2.1-.869 1.168 1.168 0 0 1 1.42.18l1.868 1.867zM35 22.16a5.844 5.844 0 0 1 5.837 5.837A5.836 5.836 0 1 1 35 22.16zm0 9.338a3.502 3.502 0 1 0 0-7.004 3.502 3.502 0 0 0 0 7.004z"/><path fill="#126ecb" d="M65.347 9.321a4.67 4.67 0 0 1 4.669 4.67v39.683a4.67 4.67 0 0 1-4.67 4.67H42.406l2.8 9.337h2.634v2.334H22.16v-2.334h2.633l2.801-9.337H4.653a4.67 4.67 0 0 1-4.669-4.67V13.99a4.67 4.67 0 0 1 4.669-4.669v2.335a2.334 2.334 0 0 0-2.334 2.334v35.016H67.68V13.99a2.334 2.334 0 0 0-2.334-2.334zm-25.38 49.023h-9.935l-2.8 9.337h15.537zm27.714-7.004H2.32v2.334a2.334 2.334 0 0 0 2.334 2.335h60.694a2.334 2.334 0 0 0 2.334-2.335zm-56.025-4.669a4.669 4.669 0 0 1-4.669-4.668V4.653a4.67 4.67 0 0 1 4.67-4.669h46.687a4.67 4.67 0 0 1 4.668 4.669v37.35a4.669 4.669 0 0 1-4.668 4.668zm-2.334-4.668a2.334 2.334 0 0 0 2.334 2.334h46.688a2.334 2.334 0 0 0 2.334-2.334V4.653a2.334 2.334 0 0 0-2.334-2.335H11.656a2.334 2.334 0 0 0-2.334 2.335zm2.334-32.682h46.688v2.335H11.656zm0 5.837h10.505v2.334H11.656zm0 4.668h8.17v2.334h-8.17zm0 4.669h7.003v2.334h-7.003zm0 4.669h7.003v2.334h-7.003zm0 4.669h7.003v2.334h-7.003zm0 4.668h10.505v2.334H11.656zM47.84 15.158h10.505v2.334H47.839zm2.334 4.668h8.17v2.334h-8.17zm1.167 4.669h7.004v2.334H51.34zm0 4.669h7.004v2.334H51.34zm0 4.669h7.004v2.334H51.34zM47.84 38.5h10.505v2.334H47.839zM11.656 4.653h2.335v2.334h-2.335zm4.669 0h2.334v2.334h-2.334zm4.669 0h2.334v2.334h-2.334zM46.555 34.6a1.166 1.166 0 0 1 0 1.649l-3.302 3.303a1.167 1.167 0 0 1-1.65 0l-2.083-2.083c-.332.159-.672.3-1.019.423v2.943c0 .646-.522 1.168-1.167 1.168h-4.669a1.167 1.167 0 0 1-1.167-1.168v-2.942a11.006 11.006 0 0 1-1.019-.422l-2.082 2.08a1.167 1.167 0 0 1-1.65 0l-3.302-3.302a1.166 1.166 0 0 1 0-1.65l2.082-2.082a10.966 10.966 0 0 1-.422-1.019H22.16a1.167 1.167 0 0 1-1.167-1.167v-4.669c0-.645.522-1.167 1.167-1.167h2.943c.123-.347.264-.686.422-1.02l-2.081-2.081a1.166 1.166 0 0 1 0-1.65l3.302-3.303a1.167 1.167 0 0 1 1.65 0l2.082 2.082a11 11 0 0 1 1.02-.422v-2.943c0-.646.522-1.168 1.166-1.168h4.67c.644 0 1.166.522 1.166 1.168V18.1c.347.123.687.264 1.02.421l2.082-2.08a1.167 1.167 0 0 1 1.65 0l3.302 3.302a1.167 1.167 0 0 1 0 1.65l-2.082 2.082c.158.333.299.672.422 1.019h2.944c.645 0 1.167.522 1.167 1.167v4.669c0 .645-.522 1.167-1.167 1.167h-2.944c-.123.346-.264.686-.422 1.019zm-2.476.828l-1.866-1.867a1.167 1.167 0 0 1-.18-1.42 8.16 8.16 0 0 0 .869-2.101 1.167 1.167 0 0 1 1.13-.876h2.64V26.83h-2.638c-.532 0-.997-.36-1.13-.876a8.168 8.168 0 0 0-.87-2.1 1.17 1.17 0 0 1 .18-1.42l1.868-1.867-1.65-1.65-1.868 1.867a1.167 1.167 0 0 1-1.42.18 8.153 8.153 0 0 0-2.1-.87 1.167 1.167 0 0 1-.876-1.129v-2.64h-2.335v2.639c0 .532-.36.997-.875 1.129a8.161 8.161 0 0 0-2.1.87 1.169 1.169 0 0 1-1.42-.18l-1.868-1.867-1.65 1.65 1.867 1.868c.378.376.451.96.18 1.419a8.164 8.164 0 0 0-.869 2.1 1.167 1.167 0 0 1-1.13.876h-2.64v2.334h2.64c.531 0 .996.36 1.129.875.19.738.483 1.445.87 2.1.27.46.197 1.043-.18 1.42l-1.868 1.868 1.65 1.65 1.868-1.867c.377-.377.96-.45 1.42-.18a8.18 8.18 0 0 0 2.1.87c.515.132.876.597.876 1.13v2.64h2.332V37.02c0-.533.36-.997.875-1.13a8.2 8.2 0 0 0 2.1-.869 1.168 1.168 0 0 1 1.42.18l1.868 1.867zM35 22.16a5.844 5.844 0 0 1 5.837 5.837A5.836 5.836 0 1 1 35 22.16zm0 9.338a3.502 3.502 0 1 0 0-7.004 3.502 3.502 0 0 0 0 7.004z"/></g></g></svg>