<svg xmlns="http://www.w3.org/2000/svg" width="74" height="70" viewBox="0 0 74 70"><g><g><path fill="#b4bcca" d="M2.16 51.938A1.45 1.45 0 0 1 .711 50.49V10.641a6.799 6.799 0 0 1 6.791-6.79h1.224v-.906a2.955 2.955 0 0 1 2.951-2.951h1.953a2.955 2.955 0 0 1 2.952 2.951v.905h6.179v-.905a2.955 2.955 0 0 1 2.952-2.951h1.953a2.955 2.955 0 0 1 2.951 2.951v.905h6.18v-.905a2.955 2.955 0 0 1 2.951-2.951h1.954a2.955 2.955 0 0 1 2.951 2.951v.905h6.18v-.905a2.954 2.954 0 0 1 2.95-2.951h1.954a2.955 2.955 0 0 1 2.952 2.951v.905h2.36a6.798 6.798 0 0 1 6.79 6.791v20.781a1.45 1.45 0 0 1-1.45 1.449 1.45 1.45 0 0 1-1.448-1.449v-11.16H3.609v30.227a1.45 1.45 0 0 1-1.449 1.45zm62.782-34.574V10.64a3.897 3.897 0 0 0-3.893-3.893h-2.36v1.306a2.955 2.955 0 0 1-2.952 2.952h-1.953a2.955 2.955 0 0 1-2.952-2.952V6.748h-6.179v1.306a2.955 2.955 0 0 1-2.95 2.952h-1.955a2.955 2.955 0 0 1-2.951-2.952V6.748h-6.179v1.306a2.955 2.955 0 0 1-2.952 2.952h-1.953a2.955 2.955 0 0 1-2.951-2.952V6.748h-6.18v1.306a2.955 2.955 0 0 1-2.951 2.952h-1.954a2.955 2.955 0 0 1-2.951-2.952V6.748H7.502a3.897 3.897 0 0 0-3.893 3.893v6.723zM53.784 2.892a.055.055 0 0 0-.054.053v5.109c0 .03.024.054.054.054h1.953a.054.054 0 0 0 .054-.054V2.945a.054.054 0 0 0-.054-.053zm-14.036 0a.054.054 0 0 0-.053.053v5.109c0 .03.024.054.053.054h1.954c.029 0 .053-.025.053-.054V2.945a.055.055 0 0 0-.053-.053zm-14.035 0a.055.055 0 0 0-.054.053v5.109c0 .03.025.054.054.054h1.953c.03 0 .054-.025.054-.054V2.945a.055.055 0 0 0-.054-.053zm-14.036 0a.055.055 0 0 0-.054.053v5.109c0 .03.025.054.054.054h1.954a.054.054 0 0 0 .053-.054V2.945a.054.054 0 0 0-.053-.053zM3.844 63.82a3.136 3.136 0 0 1-3.133-3.133v-5.406a1.45 1.45 0 0 1 2.898 0v5.406c0 .13.106.235.235.235h9.17a1.45 1.45 0 0 1 0 2.898zm5.479-38.39a1.45 1.45 0 0 1-1.449-1.449c0-.799.65-1.448 1.449-1.448h3.655c.799 0 1.449.65 1.449 1.448 0 .8-.65 1.45-1.449 1.45zm11.232 0a1.45 1.45 0 0 1-1.448-1.449c0-.799.65-1.448 1.448-1.448h3.655c.8 0 1.45.65 1.45 1.448 0 .8-.65 1.45-1.45 1.45zm11.233 0a1.45 1.45 0 0 1-1.449-1.449c0-.799.65-1.448 1.449-1.448h3.654c.8 0 1.45.65 1.45 1.448 0 .8-.65 1.45-1.45 1.45zm11.232 0a1.45 1.45 0 0 1-1.449-1.449c0-.799.65-1.448 1.449-1.448h3.655c.799 0 1.449.65 1.449 1.448 0 .8-.65 1.45-1.45 1.45zm11.232 0a1.45 1.45 0 0 1-1.449-1.449c0-.799.65-1.448 1.45-1.448h3.654c.799 0 1.449.65 1.449 1.448 0 .8-.65 1.45-1.45 1.45zM9.323 30.718a1.45 1.45 0 0 1-1.449-1.449c0-.799.65-1.449 1.449-1.449h3.655c.799 0 1.449.65 1.449 1.449a1.45 1.45 0 0 1-1.449 1.449zm11.232 0a1.45 1.45 0 0 1-1.448-1.449c0-.799.65-1.449 1.448-1.449h3.655c.8 0 1.45.65 1.45 1.449a1.45 1.45 0 0 1-1.45 1.449zm11.233 0a1.45 1.45 0 0 1-1.449-1.449c0-.799.65-1.449 1.449-1.449h3.654c.8 0 1.45.65 1.45 1.449a1.45 1.45 0 0 1-1.45 1.449zm11.232 0a1.45 1.45 0 0 1-1.449-1.449c0-.799.65-1.449 1.449-1.449h3.655c.799 0 1.449.65 1.449 1.449a1.45 1.45 0 0 1-1.45 1.449zm11.232 0a1.45 1.45 0 0 1-1.449-1.449c0-.799.65-1.449 1.45-1.449h3.654c.799 0 1.449.65 1.449 1.449a1.45 1.45 0 0 1-1.45 1.449zM28.915 57.98a4.509 4.509 0 0 1-3.208-1.329L20.3 51.244a4.544 4.544 0 0 1 0-6.418 4.51 4.51 0 0 1 3.21-1.327c1.213 0 2.352.472 3.208 1.327l2.197 2.197 11.597-11.596a4.507 4.507 0 0 1 3.21-1.327c1.212 0 2.352.47 3.208 1.327a4.509 4.509 0 0 1 1.327 3.209 4.508 4.508 0 0 1-1.327 3.21L32.124 56.65a4.506 4.506 0 0 1-3.209 1.329zM23.51 46.396c-.439 0-.85.17-1.16.48-.31.309-.48.72-.48 1.16 0 .438.17.85.48 1.16l5.407 5.406c.31.31.721.48 1.16.48.437 0 .85-.17 1.16-.48L44.88 39.796c.64-.64.64-1.68 0-2.32a1.629 1.629 0 0 0-1.16-.479c-.438 0-.85.17-1.16.48L29.94 50.097a1.438 1.438 0 0 1-1.025.425c-.387 0-.75-.15-1.024-.425l-3.222-3.221c-.31-.31-.721-.48-1.16-.48zm35.432 23.61a14.34 14.34 0 0 1-11.794-6.186H17.805a1.45 1.45 0 0 1-1.45-1.449c0-.799.65-1.449 1.45-1.449h27.788c-.664-1.676-1-3.444-1-5.265 0-7.91 6.436-14.348 14.348-14.348 2.068 0 4.13.455 6 1.317v-6.412c0-.799.65-1.449 1.449-1.449s1.449.65 1.449 1.449v8.197c3.466 2.745 5.45 6.833 5.45 11.246 0 7.912-6.437 14.349-14.348 14.349zm0-25.799c-6.314 0-11.45 5.137-11.45 11.45 0 6.314 5.136 11.45 11.45 11.45 6.313 0 11.45-5.136 11.45-11.45 0-6.313-5.137-11.45-11.45-11.45zm0 22.176c-5.914 0-10.726-4.811-10.726-10.726 0-5.914 4.812-10.725 10.726-10.725 5.913 0 10.725 4.811 10.725 10.725 0 5.915-4.812 10.726-10.725 10.726zm-7.691-9.277c.594 3.136 3.106 5.648 6.242 6.242V62.08c0-.799.65-1.45 1.449-1.45s1.449.651 1.449 1.45v1.268c3.135-.594 5.647-3.106 6.241-6.242h-1.268a1.45 1.45 0 0 1-1.449-1.449c0-.798.65-1.449 1.449-1.449h1.268c-.594-3.135-3.106-5.647-6.241-6.241v1.268a1.45 1.45 0 0 1-1.45 1.45 1.45 1.45 0 0 1-1.448-1.45v-1.268c-3.136.594-5.648 3.106-6.242 6.241h1.268a1.45 1.45 0 0 1 0 2.898zm7.69 0a1.45 1.45 0 0 1-1.448-1.449v-2.13c0-.798.65-1.449 1.449-1.449s1.449.65 1.449 1.45v.68h.868a1.45 1.45 0 0 1 0 2.898z"/><path fill="#126ecb" d="M2.16 51.938A1.45 1.45 0 0 1 .711 50.49V10.641a6.799 6.799 0 0 1 6.791-6.79h1.224v-.906a2.955 2.955 0 0 1 2.951-2.951h1.953a2.955 2.955 0 0 1 2.952 2.951v.905h6.179v-.905a2.955 2.955 0 0 1 2.952-2.951h1.953a2.955 2.955 0 0 1 2.951 2.951v.905h6.18v-.905a2.955 2.955 0 0 1 2.951-2.951h1.954a2.955 2.955 0 0 1 2.951 2.951v.905h6.18v-.905a2.954 2.954 0 0 1 2.95-2.951h1.954a2.955 2.955 0 0 1 2.952 2.951v.905h2.36a6.798 6.798 0 0 1 6.79 6.791v20.781a1.45 1.45 0 0 1-1.45 1.449 1.45 1.45 0 0 1-1.448-1.449v-11.16H3.609v30.227a1.45 1.45 0 0 1-1.449 1.45zm62.782-34.574V10.64a3.897 3.897 0 0 0-3.893-3.893h-2.36v1.306a2.955 2.955 0 0 1-2.952 2.952h-1.953a2.955 2.955 0 0 1-2.952-2.952V6.748h-6.179v1.306a2.955 2.955 0 0 1-2.95 2.952h-1.955a2.955 2.955 0 0 1-2.951-2.952V6.748h-6.179v1.306a2.955 2.955 0 0 1-2.952 2.952h-1.953a2.955 2.955 0 0 1-2.951-2.952V6.748h-6.18v1.306a2.955 2.955 0 0 1-2.951 2.952h-1.954a2.955 2.955 0 0 1-2.951-2.952V6.748H7.502a3.897 3.897 0 0 0-3.893 3.893v6.723zM53.784 2.892a.055.055 0 0 0-.054.053v5.109c0 .03.024.054.054.054h1.953a.054.054 0 0 0 .054-.054V2.945a.054.054 0 0 0-.054-.053zm-14.036 0a.054.054 0 0 0-.053.053v5.109c0 .03.024.054.053.054h1.954c.029 0 .053-.025.053-.054V2.945a.055.055 0 0 0-.053-.053zm-14.035 0a.055.055 0 0 0-.054.053v5.109c0 .03.025.054.054.054h1.953c.03 0 .054-.025.054-.054V2.945a.055.055 0 0 0-.054-.053zm-14.036 0a.055.055 0 0 0-.054.053v5.109c0 .03.025.054.054.054h1.954a.054.054 0 0 0 .053-.054V2.945a.054.054 0 0 0-.053-.053zM3.844 63.82a3.136 3.136 0 0 1-3.133-3.133v-5.406a1.45 1.45 0 0 1 2.898 0v5.406c0 .13.106.235.235.235h9.17a1.45 1.45 0 0 1 0 2.898zm5.479-38.39a1.45 1.45 0 0 1-1.449-1.449c0-.799.65-1.448 1.449-1.448h3.655c.799 0 1.449.65 1.449 1.448 0 .8-.65 1.45-1.449 1.45zm11.232 0a1.45 1.45 0 0 1-1.448-1.449c0-.799.65-1.448 1.448-1.448h3.655c.8 0 1.45.65 1.45 1.448 0 .8-.65 1.45-1.45 1.45zm11.233 0a1.45 1.45 0 0 1-1.449-1.449c0-.799.65-1.448 1.449-1.448h3.654c.8 0 1.45.65 1.45 1.448 0 .8-.65 1.45-1.45 1.45zm11.232 0a1.45 1.45 0 0 1-1.449-1.449c0-.799.65-1.448 1.449-1.448h3.655c.799 0 1.449.65 1.449 1.448 0 .8-.65 1.45-1.45 1.45zm11.232 0a1.45 1.45 0 0 1-1.449-1.449c0-.799.65-1.448 1.45-1.448h3.654c.799 0 1.449.65 1.449 1.448 0 .8-.65 1.45-1.45 1.45zM9.323 30.718a1.45 1.45 0 0 1-1.449-1.449c0-.799.65-1.449 1.449-1.449h3.655c.799 0 1.449.65 1.449 1.449a1.45 1.45 0 0 1-1.449 1.449zm11.232 0a1.45 1.45 0 0 1-1.448-1.449c0-.799.65-1.449 1.448-1.449h3.655c.8 0 1.45.65 1.45 1.449a1.45 1.45 0 0 1-1.45 1.449zm11.233 0a1.45 1.45 0 0 1-1.449-1.449c0-.799.65-1.449 1.449-1.449h3.654c.8 0 1.45.65 1.45 1.449a1.45 1.45 0 0 1-1.45 1.449zm11.232 0a1.45 1.45 0 0 1-1.449-1.449c0-.799.65-1.449 1.449-1.449h3.655c.799 0 1.449.65 1.449 1.449a1.45 1.45 0 0 1-1.45 1.449zm11.232 0a1.45 1.45 0 0 1-1.449-1.449c0-.799.65-1.449 1.45-1.449h3.654c.799 0 1.449.65 1.449 1.449a1.45 1.45 0 0 1-1.45 1.449zM28.915 57.98a4.509 4.509 0 0 1-3.208-1.329L20.3 51.244a4.544 4.544 0 0 1 0-6.418 4.51 4.51 0 0 1 3.21-1.327c1.213 0 2.352.472 3.208 1.327l2.197 2.197 11.597-11.596a4.507 4.507 0 0 1 3.21-1.327c1.212 0 2.352.47 3.208 1.327a4.509 4.509 0 0 1 1.327 3.209 4.508 4.508 0 0 1-1.327 3.21L32.124 56.65a4.506 4.506 0 0 1-3.209 1.329zM23.51 46.396c-.439 0-.85.17-1.16.48-.31.309-.48.72-.48 1.16 0 .438.17.85.48 1.16l5.407 5.406c.31.31.721.48 1.16.48.437 0 .85-.17 1.16-.48L44.88 39.796c.64-.64.64-1.68 0-2.32a1.629 1.629 0 0 0-1.16-.479c-.438 0-.85.17-1.16.48L29.94 50.097a1.438 1.438 0 0 1-1.025.425c-.387 0-.75-.15-1.024-.425l-3.222-3.221c-.31-.31-.721-.48-1.16-.48zm35.432 23.61a14.34 14.34 0 0 1-11.794-6.186H17.805a1.45 1.45 0 0 1-1.45-1.449c0-.799.65-1.449 1.45-1.449h27.788c-.664-1.676-1-3.444-1-5.265 0-7.91 6.436-14.348 14.348-14.348 2.068 0 4.13.455 6 1.317v-6.412c0-.799.65-1.449 1.449-1.449s1.449.65 1.449 1.449v8.197c3.466 2.745 5.45 6.833 5.45 11.246 0 7.912-6.437 14.349-14.348 14.349zm0-25.799c-6.314 0-11.45 5.137-11.45 11.45 0 6.314 5.136 11.45 11.45 11.45 6.313 0 11.45-5.136 11.45-11.45 0-6.313-5.137-11.45-11.45-11.45zm0 22.176c-5.914 0-10.726-4.811-10.726-10.726 0-5.914 4.812-10.725 10.726-10.725 5.913 0 10.725 4.811 10.725 10.725 0 5.915-4.812 10.726-10.725 10.726zm-7.691-9.277c.594 3.136 3.106 5.648 6.242 6.242V62.08c0-.799.65-1.45 1.449-1.45s1.449.651 1.449 1.45v1.268c3.135-.594 5.647-3.106 6.241-6.242h-1.268a1.45 1.45 0 0 1-1.449-1.449c0-.798.65-1.449 1.449-1.449h1.268c-.594-3.135-3.106-5.647-6.241-6.241v1.268a1.45 1.45 0 0 1-1.45 1.45 1.45 1.45 0 0 1-1.448-1.45v-1.268c-3.136.594-5.648 3.106-6.242 6.241h1.268a1.45 1.45 0 0 1 0 2.898zm7.69 0a1.45 1.45 0 0 1-1.448-1.449v-2.13c0-.798.65-1.449 1.449-1.449s1.449.65 1.449 1.45v.68h.868a1.45 1.45 0 0 1 0 2.898z"/></g></g></svg>