<svg xmlns="http://www.w3.org/2000/svg" width="36" height="36" viewBox="0 0 36 36"><g><g><path fill="#fff" d="M24.838 22.991v4.719a4.792 4.792 0 0 1-4.787 4.786h-6.7v2.326a.684.684 0 0 1-1.168.483l-2.809-2.809H5.281A4.792 4.792 0 0 1 .495 27.71V17.179a4.792 4.792 0 0 1 4.786-4.786h6.907a.684.684 0 0 1 0 1.367H5.28a3.423 3.423 0 0 0-3.419 3.419v10.53a3.423 3.423 0 0 0 3.42 3.42h4.443c.28 0 .521.168.627.41l1.632 1.632v-1.36c.001-.377.307-.682.685-.682h7.382a3.423 3.423 0 0 0 3.42-3.42v-4.718a.684.684 0 0 1 1.367 0zm10.667-12.557a9.832 9.832 0 0 1-1.08 4.509 10.033 10.033 0 0 1-2.612 3.221v3.956a.684.684 0 0 1-1.168.484l-2.556-2.556a9.958 9.958 0 0 1-2.523.324h-1.73c-5.48 0-9.939-4.458-9.939-9.938s4.459-9.94 9.939-9.94h1.73c5.48 0 9.94 4.46 9.94 9.94zm-1.368 0c0-4.727-3.844-8.572-8.57-8.572h-1.731c-4.726 0-8.571 3.845-8.571 8.572 0 4.726 3.845 8.57 8.57 8.57h1.731c.86 0 1.708-.127 2.522-.376a.683.683 0 0 1 .684.17l1.673 1.672v-2.64c0-.215.1-.416.272-.546a8.506 8.506 0 0 0 3.42-6.85zm-8.56.56v1.588a.684.684 0 1 1-1.368 0V10.94c0-.613.419-1.135 1.02-1.269a1.529 1.529 0 1 0-1.863-1.49.684.684 0 0 1-1.368 0c0-.8.335-1.571.92-2.117a2.874 2.874 0 0 1 2.178-.772 2.902 2.902 0 0 1 2.684 2.685 2.88 2.88 0 0 1-2.204 3.017zm0 4.293a.69.69 0 0 1-.201.484.689.689 0 0 1-.967 0 .689.689 0 0 1-.2-.484.688.688 0 0 1 .684-.683.688.688 0 0 1 .684.684zm-5.594 7.09a.684.684 0 0 1-.684.683H4.871a.684.684 0 0 1 0-1.368H19.3c.378 0 .684.307.684.684zm0 3.828a.687.687 0 0 1-.684.684.688.688 0 0 1-.684-.684c0-.18.073-.356.2-.483a.69.69 0 0 1 .484-.2c.18 0 .356.073.484.2.127.127.2.304.2.483zm-2.69 0a.683.683 0 0 1-.683.684H4.87a.684.684 0 1 1 0-1.368H16.61c.377 0 .683.307.683.684zm-1.755-7.658a.684.684 0 0 1-.684.684H4.871a.684.684 0 0 1 0-1.368h9.983c.378 0 .684.306.684.684z"/></g></g></svg>